<mxfile host="65bd71144e">
    <diagram id="e4q_RE0ZLIE-FrvINags" name="Page-1">
        <mxGraphModel dx="743" dy="385" grid="1" gridSize="10" guides="1" tooltips="1" connect="1" arrows="1" fold="1" page="1" pageScale="1" pageWidth="1600" pageHeight="1600" math="0" shadow="0">
            <root>
                <mxCell id="0"/>
                <mxCell id="1" parent="0"/>
                <mxCell id="2" value="Customer Service Representative" style="rounded=1;whiteSpace=wrap;html=1;" parent="1" vertex="1">
                    <mxGeometry x="565" y="860" width="120" height="60" as="geometry"/>
                </mxCell>
                <mxCell id="3" value="Bank" style="rounded=0;whiteSpace=wrap;html=1;" parent="1" vertex="1">
                    <mxGeometry x="525" y="770" width="550" height="60" as="geometry"/>
                </mxCell>
                <mxCell id="4" value="Bank Teller" style="rounded=1;whiteSpace=wrap;html=1;" parent="1" vertex="1">
                    <mxGeometry x="740" y="860" width="120" height="60" as="geometry"/>
                </mxCell>
                <mxCell id="5" value="Financial Advisor" style="rounded=1;whiteSpace=wrap;html=1;" parent="1" vertex="1">
                    <mxGeometry x="920" y="860" width="120" height="60" as="geometry"/>
                </mxCell>
                <mxCell id="7" value="Customer B" style="rounded=1;whiteSpace=wrap;html=1;" parent="1" vertex="1">
                    <mxGeometry x="740" y="680" width="120" height="60" as="geometry"/>
                </mxCell>
                <mxCell id="8" value="Customer A" style="rounded=1;whiteSpace=wrap;html=1;" parent="1" vertex="1">
                    <mxGeometry x="570" y="680" width="120" height="60" as="geometry"/>
                </mxCell>
                <mxCell id="9" value="Customer C" style="rounded=1;whiteSpace=wrap;html=1;" parent="1" vertex="1">
                    <mxGeometry x="925" y="680" width="120" height="60" as="geometry"/>
                </mxCell>
                <mxCell id="10" value="" style="endArrow=classic;startArrow=classic;html=1;exitX=0.5;exitY=1;exitDx=0;exitDy=0;entryX=0.25;entryY=0;entryDx=0;entryDy=0;" parent="1" source="8" target="3" edge="1">
                    <mxGeometry width="50" height="50" relative="1" as="geometry">
                        <mxPoint x="590" y="780" as="sourcePoint"/>
                        <mxPoint x="640" y="730" as="targetPoint"/>
                    </mxGeometry>
                </mxCell>
                <mxCell id="11" value="" style="endArrow=classic;startArrow=classic;html=1;exitX=0.5;exitY=1;exitDx=0;exitDy=0;entryX=0.5;entryY=0;entryDx=0;entryDy=0;" parent="1" source="7" target="3" edge="1">
                    <mxGeometry width="50" height="50" relative="1" as="geometry">
                        <mxPoint x="707.5" y="690" as="sourcePoint"/>
                        <mxPoint x="744.9999999999998" y="780" as="targetPoint"/>
                    </mxGeometry>
                </mxCell>
                <mxCell id="12" value="" style="endArrow=classic;startArrow=classic;html=1;exitX=0.5;exitY=1;exitDx=0;exitDy=0;entryX=0.75;entryY=0;entryDx=0;entryDy=0;" parent="1" source="9" target="3" edge="1">
                    <mxGeometry width="50" height="50" relative="1" as="geometry">
                        <mxPoint x="920" y="690" as="sourcePoint"/>
                        <mxPoint x="925" y="780" as="targetPoint"/>
                    </mxGeometry>
                </mxCell>
                <mxCell id="13" value="" style="endArrow=classic;startArrow=classic;html=1;exitX=0.5;exitY=1;exitDx=0;exitDy=0;entryX=0.5;entryY=0;entryDx=0;entryDy=0;" parent="1" source="3" target="4" edge="1">
                    <mxGeometry width="50" height="50" relative="1" as="geometry">
                        <mxPoint x="804.52" y="840" as="sourcePoint"/>
                        <mxPoint x="804.52" y="930" as="targetPoint"/>
                    </mxGeometry>
                </mxCell>
                <mxCell id="14" value="" style="endArrow=classic;startArrow=classic;html=1;exitX=0.25;exitY=1;exitDx=0;exitDy=0;entryX=0.5;entryY=0;entryDx=0;entryDy=0;" parent="1" source="3" target="2" edge="1">
                    <mxGeometry width="50" height="50" relative="1" as="geometry">
                        <mxPoint x="810" y="840" as="sourcePoint"/>
                        <mxPoint x="815" y="930" as="targetPoint"/>
                    </mxGeometry>
                </mxCell>
                <mxCell id="15" value="" style="endArrow=classic;startArrow=classic;html=1;exitX=0.75;exitY=1;exitDx=0;exitDy=0;entryX=0.5;entryY=0;entryDx=0;entryDy=0;" parent="1" source="3" target="5" edge="1">
                    <mxGeometry width="50" height="50" relative="1" as="geometry">
                        <mxPoint x="672.4999999999998" y="840" as="sourcePoint"/>
                        <mxPoint x="640" y="930" as="targetPoint"/>
                    </mxGeometry>
                </mxCell>
                <mxCell id="16" value="" style="shape=image;verticalLabelPosition=bottom;labelBackgroundColor=default;verticalAlign=top;aspect=fixed;imageAspect=0;image=data:image/png,iVBORw0KGgoAAAANSUhEUgAAAgAAAAIACAYAAAD0eNT6AAAABHNCSVQICAgIfAhkiAAAAAlwSFlzAAAOxAAADsQBlSsOGwAAABl0RVh0U29mdHdhcmUAd3d3Lmlua3NjYXBlLm9yZ5vuPBoAACAASURBVHic7J1ndFRV24avMy2ZSYXQe+g9iCBFutgpKh0EC6CCAkloIURUahJKKIpKUV+RIF2KoHxIEwGl9957b8mkTWa+H8coomKYnOyTCftaa9a7fMk5984kmf2cvZ993yCRSCQSieSRQ9F7ABKJJNsxA5WAGkApIOCeF8Dte14ngd3AQSBN9EAlEolEIpFkjRrACGAbkAK4HvKVDGwFhgMhgscukUgkEonkIcgDDAOO8fAT/n+9jgLv/64hkUgkEokkBxAEfAjcRPuJ//7XXWASUEjENyaRSCQSieTvmIF+wC2yf+K//5WAWnR4Z/c3KZFIJBKJ5E+aA/sRP/H/09ZAu2z+XiUSiUQieeSpAHyP/hP//a+fgGrZ+H1LJBKJRPJIkgeIxr2OflGvNOBzIH82vQcSiUQikTwyGIBuwBX0n+Az+7qB2ptgyob3QyKRSCSSXE9TVFMevSd0d18Hgec1f1ckEolEIsmlFAe+Rv8JXKvXMqCMpu+QRCKRSCS5CB/Uo3VJ6D9pa/1KRfUP8NfqzZJIJBKJxNNRUPf5L6L/RJ3drwvAW4BRk3dOIpFIJBIPpTawCf0nZtGv7UADDd4/iUQikUg8iiKo+/xO9J+M9XwtA0pm8b2USCRuIOOAJRKxWIEBwGDUPX9h+AYGUaFWY4qVr0pQ4RJYfdTt+OTEu1y/eIazR/ZyeNt6Em5dFzksgEQgBhiH2v8gkUgEIAsAiUQc7YFYBD/xVmvwHM+9Fk7FOk0xGB689e50pnPw1zX88NUE9v3yo6AR/sFpYCAwX7SwRPIoIgsAiST7eQyYCDQSKVqy0mN0GhxHhVruyR7etp746DDOHNql8cj+k19RjYR+FS0skTxKyAJAIsk+goBhwLsI7Hr3DQyi1TtRPNX5vf984v8vXE4nm5Z/w7zxg7lz/bJGI8wUTmA26oqAUGGJ5FFBHsWRSLTHDPQBFgONUe18sx2jyUzzTu/Rd8piKtRqjKJkXVZRFEpUCKFZh3cwms0c370FZ3q6BqP9b2kgBHgH8AI2A0KEJZJHBbkCIJFoS3PU5f4qIkUr12tO58FxFC2bvbKXTx9l4eQotv4ofJv+KDAU2R8gkWiGLAAkEm0oD0wAXhQpWqhUeToOHEdI4xYiZTmweTXxseGcP7pPqC5q7HAoIFxYIsltyAJAIskagUAEEAZYRIna/AJ5scdgnukaisniJUr2L6Q70vh58ZcsnBxFws1rIqUdwBeoKwJChSWS3ITsAZBI3MMAdAWWAs8i6G9JMRio3+JV+n2ylKpPPovBqF/irsFgpFSVx2ncpjtpKcmc2r8Nl8slRBp4HOgBpKC6CjpFCEskuQm5AiCRPDxNUPf5Q0SKVqzdhM4RcRSvIFQ201w4cZA5MeF6+AccQl2B+UG0sETiycgCQCLJPMWBUahP/sLIW6g4r/QdwZOtuomUdZtd65YRHx3G1XMnREsvR/UPEC4skXgisgCQSP4bGzAI1b7XW5SoxdvG828O4MXuEZi9hMlqgiMtlbVzP2XRlGEkJ94VKZ0KfAa8D9wRKSyReBqyB0Ai+XcUoB3qPn9rQMiGu6Io1H62Hf0+XkLNZq0xmvTb53cXg9FImep1adD6NVLsCZw+tBPE9AcYgTrA68BdYCdq6JBEIrkPuQIgkfwztYBJQH2RoqWq1KJzRBzlHntSpGy2c2r/NmaPCeXYrk2ipbehHhv8RbSwRJLTkQWARPJXigAfoHaYC3HwAwgsUITWvYbRuE0PFIMwWaG4XC62rVrA3HEDuX7xjFBpYAFqCqNQYYkkJyO3ACQSFQvwHrAQ9alfSHFsMlt4qtO7vDdxAeUeq4+i5N6aXFEUipatQpP2b2E0mTix51ec6Q4h0qjOjG+j/py3oHoJSCSPNLn300YiyTwtUY/1lRYpGtK4BV2GTCR/MaGyOYYbl86ycFIUm5bNEi19FogCZiH7AySPMLIAkDzKVALiUI18hFGkdCU6DZ5A1SeFyuZYDm1dR3x0GGcP7xYtvQ61P0C4sESSE5AFgORRJC/qPr/QmF6fgLy07vW+JjG9uY0/YofHDeLOjSsipTNihwcAQoUlEr2Rn0KSRwkzanPfYqApgpr8DEYTjdv2oO+kRVSq00yTmN7cRkbscOO2PQA4uW8rTqfQ2OGev//3NmTssOQRQa4ASB4VmqMu91cVKVq57lNqTG85obIez6VTR/g2tj+7N3wvWvoI0B/VVVAiydXIAkCS2ymHat/bTqRowZLlaNN3JLWfFSqb6ziweTXxMWGcP7ZftPRq1P4A4cISiShkASDJrfii7utGAMLycr1svjz3ejgtegzRLaY3t5HuSGPNt1NZ/PGHJCXcFimdBnwKDAOECkskIpAFgCS3YQBeBWKBgqJEFYOBei92ocOAWPyDhMk+UiTcus7ST0fw05xPRPUHZHAdGAF8jOwPkOQiZAEgyU3UQbXvrSNStHT1OnSJmEjp6kJlH1lOH9zJnJgwDm/bIFp6F2raoHBhiSQ7kAWAJDdQDBiN+uQv7Hc6T8FitOk3kvotu+ZqB7+cyq51y4gfE8rV8ydFSy8H+gLChSUSLZGfWhJPJiOmdxBgFSVq8bbRvEsfWr09FC+bryhZyT+QmpLE6m8ms2zaaNGxw0nAZNQGU6HCEolWyAJA4okoQGcgGvXpX4yoolDnhU60D48mT0FhspriSEtl26oF7Pl5JVfPngBFIX+xYEIavcDjT7fBZLboPUS3uHn5HPMmRPDrijm4xMQOZ3AOGAzMQdoKSzwMWQBIPI3aqPv89USKBletTeeIOMrWEJoOrBlOZzobFs5k8ccfcOf65X/8moB8hXj5vY9o9Ep3j00kPLZrE7PHhHJq/zbR0ptQjw1uFS0skbiLLAAknkJh4EOgOwIdLAPzF6Z17w9o1Ka7x9r3Ht62nvjoMM4c2pWpry9RsQadIyZSoVajbB5Z9uByudi0bBbzJ0Rw+9olodKoscP9UQOHJJIcjSwAJDkdM9AbGA74ixI1msw069CLl/sMx+orTFZTbl4+x4KJQ9m8/Bu3lsVDGregS+Qk8hcNzobRZT8pSYms/HIsK2bGkpaSLFI6ERiHukUlVFgieRhkASDJybREte8tI1I0pHELOkfEUaC4UFnNSE22s+KLWFbOHEtqSlKW7mXxstL81b60fCsSbx8/jUYolusXz7Bo8vt6xg5/LVpYIskMsgCQ5EQqAhOA50WKFg6uSMdB46neUKisZrhcLratWsDc8YO4fuG0pvcOLFCE1r2G0bhND4/tDzj421rmRIdx9sge0dJrUfsDhAtLJA9CFgCSnEQe1H3+3oBJlKiPfx5a9x7GU53exWAUJqsppw5sJ35MKEd3/pKtOp7eDJkROzx37EDu3rwqUlrGDktyHLIAkOQETMCbwEggvyhRg9FEo1fe5JW+I/DLI0xWU25dvciSqR+xfuEMXE6nEE1FUaj1TFs6DhxH3kLFhWhqTeKdm6yYGcuqr+NwpKWKlL4JxKBubQkVlkjuRxYAEr1pBkwEqokUrVSnGZ0j4ihWTqisZvwZkPMBSQl3dBmDl9WH597oz4vdIzB7eesyhqxy6dRh5sT2Z8+GFaKlDwPhgHBhiSQDWQBI9KIsqn2v0LzcAiXK0rbfKI+O6d21bhlzYsK5cva43kMBIG+h4rzSdwRPtuqm91Dc5sDm1cyODuXC8QOipVej5gsIF5ZIZAEgEY0PMBDRMb2/P616ckzvxZOHmBMTzt6NP+g9lH+k0hNN6RQRR/Hy1fUeilvI2GHJo4YsACSiUICuqPufhYSJKgr1WrxK+/4xBOQTJqspibdvsGTqcH76dirOdIfew3kgf8QiDxyLf94Ceg/HLWTssORRQRYAEhE8gWrfW1ekaOlqT9A5YiJlQoTKaoYz3cGGRV+waPL7ojvWs4yPfx5e6D6IZ7qFeWy+wOkDO4iPCePI9p9FS+9APTYoXFjyaCELAEl2UhQYg+iY3gJFaRM6yqNjeg9s+Yk5MeGcO7pX76FkiUKlKtBp0HiqN3pB76G4za51y5g9ph/Xzp8SLb0c6AMIF5Y8Gnjmp6Mkp2NFzUuPAoTl5Wa41nlyTO+VM8dYMGkoW3+cr/dQNKVyveZ0iZhIkTKV9R6KW2TEDi/9fBQp9gSR0hmxwyMBocKS3I8sACRa0xL1A6uUSNGQxi14NXIy+YoKldWMDN/672fE4EhN0Xs42cKf+QofYfUN0Hs4bnHzynkWxEW6na+QBc4DkcAsZOywRCNkASDRisdRz/M3EClaqvLjdI6Io1xNobKa4XI6+fm7L1k4KepfY3qzA4PBQJs2bcHlYuGihTgFmQgB+AcVpE2/kTR86Q2PtRU+sv1n4mPCOH1gh2jpjajHBoULS3IfsgCQZJUg1ONL7yIwptc3MIhW70TxVOf3PDam98Te34iPDuX47i1CdUNCQhgaGUWNkBoAHDhwgFFjRrJ1q9go+5KVa9J5cBzlH28oVFcrdI4d/gYYBAgVluQuZAEgcZeMmN6PAGHruXIZ2X0KFSpEeGg4rVu/9I/NkWvWrmHEyOGcP39e2JhAbt9kgYzY4TFA7tw3kmQrsgCQuENz1GN9Qju6ZCOZe1i9rXTt2pXevd7FZrM98GuTk5P5etbXfPrZVBITEwWNUDZwZpFjqP0BuatzVJLtyAJA8jBUQI3pFXqmSx4lc5+mTZoy7P0PKFq06ENdd/nyZcZPGMeSpUuErlLII5xZYg2qf4Bnnx2VCMMz/8IkoskDDAbCAGGuLtJMxn2qVK5C1NAoHn+8Vpbus3fvHkaOGsnOXTs1GlnmkCZObuMAvkA9gutZ7lES4cgCQPIgDKgmPuMQGNMr7WTdJ0+ePPTu9S6vdnkVo1Gb5kiXy8WSJd8xdtxYrl4TN6dIG+cscRO1P+cT1KJAIvkbsgCQ/BtNUY/1CU12kYEy7mEymejcqTOh/cLw9c2ePfSkpCRmzJzOtOnTSEkR13OWW4Kcvo3tz56fV4qWPoQaOyxcWJLzkQWA5H6KA6NQg3uEISNl3ad+/fq8P3QYZcqUEaJ3+sxpJkwYz8ofxM4pMso5SyxH7Q/IGRnSkhyBLAAkGWTE9A4GvEWJZjzdvdg9ArOXMFlNuXTqMHNi+7NnwwqhusHBwURGRNK4cROhuhls2bKZkaNHceTIYaG6leo0o3NEHMXKVROqqxV/rhJ9QFLCHZHSGbHD7wNChSU5E1kASBSgLTAe9elfjKiiUOuZtnQcOI68hYTJakrinZusmBnLqq/jcKSlCtMN8A/gvff6aLrP7y7p6eksWDifuIlx3LhxQ5iuwWii0Stv8krfEfjlEdaeoim3rl5kydSPWL9wBi6BTozAReBDYCYydviRRhYAjza1Uc/z1xMpGly1Np2HTKRsiFBZzXA5nWxa/g1zxw4U2uFtNBpp26YdYaFh5M2bV5huZrh95zZTpkxmdvxs0tPFzSk+/nlo3XsYT3V6F4PRJExXS04d2E58dBhHd2wULb0ddVtAuLAkZyALgEeTIkA0gmN6AwsUoW3oaI8+433wt7XMiQ7j7JE9QnXr1q3H0CGRVKhQUajuw3Ly5ElGjRnFhg3rheoWDq5Ix0Hjqd7weaG6WuFyudi2agFzxw/i+oXTQqWBBajbf0KFJfrjmZ/CEnfJiOkdCviJEs1weWv5ViTePsJkNeXGpbMsnBTFpmWzhOqWLFGS8PD+PP+cZ01sa9auYfSYUZw5c0aobkjjFnSOiKNAcTENkVqTmmxnxRexrJw5ltSUJJHSdmAKMnb4kUIWAI8OLVGX+4NFioY0bkGXyEnkLypUVjMyfN5XzIwlLSVZmK7VaqVH9x681fNtvLw88+ibw+FgdvxsJk2eSEKCuDnlz7yI4Vh9/YXpasnNy+dYMHGoHrHD51AfEGTs8COALAByP4+hnudvJFK0ZKXH6DQ4jgq1hMpqRsaS7LdjB3Dj0llhuoqi0LpVawYOHET+fJ7Z3HY/N2/e5JOpHwvvDwjMX5jWvT+gUZvuHpsYeXjbeuKjwzhzaJdo6V9RY4d/FS0sEYcsAHIvMqbXTU7u20p8dBjHdm0SqlutWnWihkbxWI3HhOqKYv+B/YwcNZLt27cJ1S1V+XE6R8RRrmYDobpakdF0Om/8YO5cvyxS2gnMRu0PECosEYMsAHIfMqbXTW5ducCST4cLP5ZVsGBB+of1/9eY3tzGmrVrGD5iOBcuiIsdzjh22qF/LEFFSgrT1ZIUewIrvxqnR+xwAuoxYRk7nMvI/Z82jxbNUZf7q4gUrVyvOZ0Hx1G0rFBZzciI6V02bTTJiXeF6Xp7e9Otazd6vdMbHx8fYbo5gaTkJGbNmsXUTz/BbrcL07V422jepY9Hxw5fPn2UhZOj9IgdPoraHyBjh3MJsgDIHZRHrdBbiBQtVKo8HQeOI6SxUFlN2bVuGfFjQrl6/qRQ3aZNmvJ+1DCKFSsmVPdeMkyERO7L38+lS5eYEDdefOxwwWK06TfSo4+kHti8mvjYcM4f3SdaejVqMqhwYYm2eOZvviSDQCACwTG9Nr9AXuwxmGe6hnpsOMuZQ7uIjw7l8LYNQnUrV67M0CFR1K5dW6juvSgGBau3N15eXiiKQkpqKvZEu+hu87+we/duRo0eya7dYpvdSlevQ5eIiZSuXkeorlakO9L4efGXLJwcRcLNayKlM2KHhwJChSXaIQsAzyQjpncsICwvNzfE9P4Rzyo4pjcwMJB3e7+nq32voihYvMzYrLa/PfW6nC6SkpNJSUnRrRBwOp0sXbqE2LGxXLsubk754/d6QCz+QQWF6WqJXr/XwA1gOPAx0lbY45AFgOfRBHWfP0SkaMXaTegcEUfxCkJlNSMjgOW7Tz7CfveWMN2MmN5+fUPx89PPBMlsNmG12TD9R/GRnp6O3W4nLU2/CHm73c7ML2bw+bTPSU0Vl7HgZfPludfDPTp2+MKJg8yJCWffLz+Klj6IuhIpXFjiPrIA8BxkTK+bHNi8mviYMM4f2y9Ut379+gyNjKJc2XJCde/FYDRgs1qxWB5uhyjNkYY9MUnX/oBTp08RFzdBeOxwwZLlaNN3pMfHDsdHh3H13AnR0stR/QOEC0seHlkA5HxswCAEx/RavG08/+YAD4/pPcK3Ywewe/1yobqlSqkxvU2aNBGqey+KouDt7Y3V6v7PzuVykZKSQlJSsq79AZs3b2LU6FEcOXpEqG7luk+pp1vKVRWqqxWOtFTWzv2URVOGCT3dAqQCnyFjh3M8sgDIuWTE9I4DSggTzTgvPWAsQYWFyWqK/e4tvp8Rw6pZE4Wel/b39+etnm/zxutvYDabhenej8ViwcdmQzFo8+ftdDlJTkohOVmcFfL9ZMQOT4ibwM2bN4XpZsQOt+k7Et88+YTpaole/hbABVQ/khmopkKSHIYsAHImtVD3+Z8UKVqqSi3VMe0xobKa8Ydj2rhB3LlxRZiuwWCgVctWDB4UQVBQkDDd+zGZTNhsVkym7InFTXekk2i343Do1x9w+/ZtpnysQ+xwQF5a93rfox0uT+3fxuwxocIdLoFtqLHDv4gWljwYWQDkLIoAHwA9UDv9hRBYoAitew2jcZseKAZhsppyeNt6Zo8J5ezh3UJ16zxRh6GRUVSsqF9Mr8FgwGqz4vWQ+/zukpaaht2eRLrYbvO/cOLECUaPGcWGn8Ue4yxSuhKdBk+g6pPPCtXVij9ih8cN5PpFoUmNGbHDAwCxEZGSf0UWADkDC9AL9TiNsPgyk9lC0/bvyNQ0NyhcuDBh/cJ46aWXhWn+Exn7/Jkxs0lPT+fcuXMcO36MK1euYLfbSUxMJD09HZvNhs1mI3++/JQuXZpSpUo9uHHQBckpybr3B6xZu4ZRo0dy9qy4wCb4PeVyyETyFystVFcrMmKHRadcosYOjwWiAf32lCSALAByAi1Rl/uFfpLIDzD3sHpb6dFD/5hes8WMzWbF+IDlaLvdzqbNm/j555/5ZdMvHDhwINPH6kwmE8HBwTxZ/0kaNGhAw4YNCcr79+0Np9OJ3Z4k9Lje/aSlpRE/J1547HBuKKBvXDrLwklRbFo2S7T0WSAK+Fq0sORPZAGgH5WAOEDoWmKuWcIcP4jrF04L01UUheeefY7BgyMoUriIMN37MRqN+PjY/nWf3+l08tvW35g3fx4LFy4kMTFRM90GTzagffv2tGzREpvN9pd/dzgc2O1JuvYHXL16lclTJjN/wTycApvdcsMW2qGt64iPDhO+hQasQ+0PEC4skQWAHuRF3ecXGtObK5qYDmwnfkwoR3eK7SWqWrUaUUOjqPlYTaG692JQDHhbvfD2/udjfWlpaSxavIiJkyZy9OjRbB1LUN4gunfvzttvvU1AwF+TH1NSU7Hb7bic+m0L7Nu/j5GjRrJjx3ahurKJ1m0yYocHAEKFH3VkASAOE/AmqpmPsPNEueIY09WLLJn6kfBjTAUKFKDPe31o17Y9Bp2e7BRFwcvL64H7/IsWLWL4yOGcO3dO6NgCAgIICw3j7bfe/suxR5fLRXJyCklJSULHcy8ul4sffvyBmNgYfWKHc8Mx2q/jcKQJ3dq5hdobEIfqJSDJZmQBIIbmqL/UQh1FKtdrTudBEzzeyGTxxx+QlCDOT8RsNtOpYydC+4Xh66tfZKzZZMbmY/3X7IDjx48zcNBA4Z3w91OxQkXGxo6lXr16f/n/nelO7En69gckJScxY8Z0pk2fRkqKOE+IXGOkFduf3Ru+Fy19BOiP6iooyUZkAZC9lEN94hfqKSqtTN2naZOmRA19n+LFiwvVvRej0YjNZn2gmdDceXMZOGggdrtd4Mj+HUVR6NmjJx99+NHfxp3mcJCUaMfxCMYOSyvtLLEatT9AuPCjgiwAsgdf1P2sCEBYq3huCDO5ePIQc2LC2bvxB6G6ZcqUIXLIUBo2aChU917uj+n9J5KTkwnvH868+fMEjy5z1K1bl5nTZ1Kw4F9T9VwuF6kpaSQlJeF06WcK9+tvvzJq9EgOHTokVDe3hGkt/vhDkhJui5ROAz4FhgFChR8FZAGgLRkxvbGAsFzRXBVn+u1UnOniOskDAgJ4790+usb0wu/2vT5/j+m9l9u3b9Olaxe2bNkicGQPT4niJZg/bz5lypT52785nU6Sk1NyROxwzNgYrl+/Lkw3N8RpJ9y6ztJPR+gRO3wdGIGMHdYUWQBoRx1g0u//K4zS1evQJWIipasLldUMZ7qDDYu+YOHkKBJuisuANxqNtG3TjvCwcPLkySNM935MZhO2TMT0XrlyhXbt27H/gGeshubLl4/5c+dTrVq1f/x3NXY4ibS0NMEj+5M7d+4wbfrnfPW/r4T2Kdj8Anmxx2Ce6RaGySzGvVFrTh/cyZyYMA5vE95/shN1W0DfxpdcgiwAsk4xYDTqk7+w9zNPwWK06TeS+i27ZsoFLidyYMtP6t7i0X1CdevVq8/QyKGUL1deqO69PIx97927d2n1Uiv27t0rYGTaEZQ3iOXLllOu3L/HIaelppFotws9t38/p06dZEz0GNauWytUt1Cp8nQcOI6Qxi2E6mrJrnXLiB8TytXzJ0VLLwf6AsKFcxOeOXPkDGxAH1Q3K2Gt4hZvG8279KHV20PxsunXoZ4VLp8+ysLJUWz9cb5Q3VIlSxEWFs7zzz0vVPdeHjamNyUlhXYd2rFpk/AAF00oUbwEK75fQaFChf71a3JK7PCmTZsYNXokR49lr4/C/VSu11yNHS5bRaiuVqSmJLH6m8ksmzZadOxwEjAZtdFaqHBuQRYAD09GTO9YoKQw0Yzzxf1jCSoiTFZTUpISWfnlWL6fESM0ptdms9H9ze68/dY7D/a3z2YsFgs2qxWDMfOeAqFhoXwz+5tsHFX2U7NmTZYvXf6f773T6SQpOYmUZP2ODTocDmbHz2bKx5O5c0fc0VOjyUyzDr14uc9HWH0D/vuCHMitKxeYHzdEeC4HauzwEGAWauiQJJN4piWcfjwOzEU9oxooSrRU5cfpPf5bnnu9PzY/YbKa4XI62bRsFhPfbcWeDStwCjoOZjAYaN2qNZ9/Po2mTZrq1uRnMhnx9fXF29sbxZD5mnvxd4sZNXpUNo5MDBcvXiQ5OZmmTZo+8OsURcFitmAxW3Cmp+uyLWAwGKgRUoMO7TuSkpLMvv37hExmLqeTE3t/Zf2CGZgtXgRXrY2ieJatsLePH483f5nqjV7g/NH93LgszJjKD3gZeAHYB4h1xPJg5ApA5igMfAh0R2DRFJi/MK17f0CjNt091r73xN7fiI8O5fhusZ3rISEhREW+T0iIfseuDAYDVm8rXt4Pv+pw+sxpGjVupJmXv94oisK8ufP+swi4l9TUVOz2JF37Aw4ePMio0SP5betvQnVLVnqMToPjqFCrkVBdrXC5XGxaNov5EyK4fe2SUGnU2OH+qIFDkgcgC4AHYwZ6Izim98/lQM9NGbt55TwL4iKFLwcWKlSI8NBwWrd+SbfmyMzY9/4XnV/tzKpVqzQemUqRfD5ULxNEmSL++NrMGA0KiUkOTl++y74TNzh2PnuOWwcHB7Nxw8aHS1F0QVJysq62wqDGDo8cNUK43XJI4xZ0iZxE/qLBQnW1ImPbT4fY4URgHDJ2+IHIAuDfaYlq3/v3w8zZSEjjFnSOiKNAcaGympGabGf17Cks/XwUKXZx0axWbytdu3ald693/5ZUJ5LMxPT+Fyt/WEnXbl01HBWULuLP689XpF3TMlQs8eBtpPNXE/lu40m+XHGI7YevajqOQQMHMWjgoIe+LifFDk+cFCd0ZcbiZaX5q31p+VYk3j5+wnS15PrFMyya/L6MHc5hyALg71QEJgBCW8ULB1ek46DxVG+oX4d6Vtm1bhmzx/Tj2vlTQnWbNmnKsGEfULRIUaG695IZ+97M4HQ6ebLhk5ol+hUv4MuYt+vSoVkZTA/RfJjB6m3nGPzZq+pUpAAAIABJREFUFnYc0aYQsFqt7Nqxi6CgILeud6Q5SLTbSdfRVvjKlStM+XiKLrHDbUNHe/TR34O/rWVOdBhnj+wRLb0W1T9AuHBOxjM3lrOHPEAM8CVQQZSoj38e2oWNoceoLylUSpisppw+sINPB3RkxcwY7HdvCdOtUrkKkydO5q233sbfT5+tEoPBgNXqja+vjyZNhkuXLeXLr77UYGTwdqvKLBnzPLUq5MfwEM2H91K6iD89WlTC12pm3a4LOLMY8+twODCZTDRq5N7etsFowNvbC4PRiMPh0KXn28fHh2ZNm9G4UWOOHTvGxUsXhegmJ95lx0/fsefnlRQtV5W8hfTLq3CX/EWDadLuLfIXL83RHb+QmiwsyyIYeBsoC2wEckaIhs54ZhmpLRkxvSOB/KJEM2J6X+k7Ar88wmQ1RS9b0Pz589O3T1/atmmnW2e/oihYvMxYrVYMGnZrN32qaZYNf8wmA9MHNeG157QtKDfuuUjryJXcuJO1I5z+/v7s2rELf/+sFW0ul4ukpGSSk/Xb4v0jdjgmmgsXLwjTzTgW3HHgOI8sBAAS79xkxcxYPWKHb6I+7D3yscOP+gpAM2Axane/jyjRSnWa0XfyIhq90h0vqzBZzUh3pPFT/MdM6fsKh7dvENbkZzKZeLXLq3wyZSo1H6uJwaDPMSmzyYyvn88DQ3vcYefOnYwbPy5L9zAZDSwY8QwdmpXVaFR/UqKgHy/WK8m8NcdJSnE/ryElJYWSJUpm+YSGoiiYzWa8LF44XS5dtgUURaFc2XJ06NARs9nE7t27hY3jwvEDrJ8/HYcjlTLV62I0mYToaoXFy0qVes154rl2XD13ksunhRkwWVEj2tsDJwCxzk85iEd1BaAsqn2v0LzcAiXK0rbfKI+O6T2weTWzx/TjwomDQnWbNmnK0MgoSpQoIVT3XgxGAz5WG2ZL1vb5/40hkUOYPmN6lu4xY3ATur9YSaMR/TOb91+mad8lpKS5P9HVeaIO3y/XNmc+zZGGPTFJ1/6AixcvEjdxAt8t+U6obm6JHZ4dHcqF4wdES68G+gHChfXmUSsAfICBiI7ptfrw3Bv9PTqm99Kpw8yJ7c+eDSuE6pYuXZrIiEgaNWosVPdeFEXBavXG2ztz9r3u4HA4qFK1CtdvuJ9O9/rzFflySObP2WeFKQv30nfSRrevVxSFbVu3UbKEtq6WOSV2eMuvWxg1ehSHD4uNHa70RFM6RcRRvHx1obpaIWOHxfKobAEoQDdgGdACdd8/+0UVhfotuxL6yVJqNG6BwehZS3Sg7tMtmTqcGZGvcfGkuA+zAP8ABvQfSMyYGIKD9TsDbbFY8Pfzy3J3/3+xc9dOpk2f5vb1BfNYWR7zAt4WMb9jT1QqyLpdFzh9yX0L9vLlylOjRg0NR6X+zZlMRixeFkBRGwV1oFixYnTs0JESxUuwY+cOYT4G186fYt38aVw5c5zyjzfwuC1Gg8FImep1ady2J46UFE7t3yZqi9GImuTaE0gBtvEI2Ao/CgXAE6jOUH0QGNpTutoTvDthPs279MHbA0N7Mux7J73bmv2bVglr8jMajbRv14FPPp5Kvbr1dNvnN5lN+Pn54u2t7T7/vzF//nw2bHA/4XTcu/VpUL1w5i9QFDAawGQEowKKAR7ig1ZRoFLJPMxY7v5WkNVqpXWr1m5f/yAy+gMsFgtOp1MXN0FFUahYsRLt2rVDAfbs3SNmHC4XZ4/sYcPCmQAEV3sCg07Nsu5i8bZRreFz1GjcggsnDnL94hlR0jbgOdQHxYOAMGE9yM1bAEWBMYiO6S1QlDahozz7rO6va5gTEy78rG7duvWIihxK+fL6HYd8mJheLWnfoT1r1q5x69qCeaycXtAVL/O/fMgbDeBlVl/eJjCa4N/qqnQnpDogJQ2S0iDtwU/QT4UuZc2O826NOygoiMMHD7t17cOSE2KHT548yejo0axfv06obqFSFeg0aDzVG70gVFdL9PIYQY0d7gMIFxaBZ85QD8aKmhMtNqb3d7cuT47pvXL2OAsmRgqP6S1ZoiTh4f11jelFUd0EMxvTqzVVqlXh8uXLbl3bv0MI496t/9f/U0Gd8H29werl/l96WjokJquv9L+vEMz+v6O8OmK1mzeHg/sPkj+/mGOwOSl2eOToERw7dkyobuV6zekSMZEiZSoL1dWKjNhh0S6j/Bk7PBIQKpzd5LYCoCXqD6qUSNGQxi14NXIy+YoKldUMvfy6rVYrPbr34K2ebz+cP7zGWCwWrDYrRp22GxISEgguE+z2pPTL1JepX7WQ+h8K4OMNATb1yV8rnIA9GW4lwj1mQHftaeR98Qsc6e49WS/9bin169f/7y/UkJwUOzx5yiTu3hUXZZ8bYof1yhkBzgOR5KLY4dxSANQEJgINRYqWrFyTzoPjKP+4UFnN0CuxS1EUWrdqzcCBg8ifTz8TJKPJiM1mw6zz+endu3fz1NNPuXWtj7eZmyvexGwygJcJ8vqCORu/H6cLbtvh7p9NbfV6LWLLfvdWL+LGx9G1q7a5B5nF4UjHbrfr1igIcOvWLT7+ZAqz42cLPb7oGxhEq3eieKrzezJp9OH5DfXYoHBhrfGswOm/EwRMQv2BCJuFfQOD6BwRx7Bvf/XYyf/kvq2MfrUBMyJfFzr5V6tWnW/nzCU2Zqxuk7/BYMDH5kOAv7/ukz/AtevX3L62YslAzGYDBPpAwcDsnfwBDArk+V3r9xWGqsF53b5dVr73rGIyGfH398PX1weDlqslD0FgYCBRQ99nwfyF1KpVS5huwq3rxEeHMbxjHY5s/1mYrpaUrvYEQ7/5hR6jvyIgXyGR0k8Am1ADhoQKa42nFgBm1ArsOOp+v5AS1mgy83SXvsT+cIynX+3nkZXzrSsXmD7kNUZ0qsux3ZuF6RYsWJDY6FgWzFvAYzUeE6Z7L4qi4O3tTUCAP17eYpv8HkRCgvvbisFF/CF/APhbNRxRJvAyQaFAsJgoXcR9S9+sfO9aYbFYCPD3x2oV/B7eQ5XKVYj/Zg6fffo5RYuKC7U6fWAHY15rzMR3W+nRYJdlFEXhyVbdiFl5lNa9h4n0WVGArsAx4EME+spoiScWAM2BXahL/sI2sSrXa87whTvpPGSiR+6dpaYksWJmDENaVmLTslnC9s68vb15q+db/LDiR1566WXdTkaYLWYCAvyx2aw57nRGViZB/3y+4J29HgX/itEABQLwD3R/4swJBQD8afYUGBiARfAJkHtp1rQZK7//gQH9BwqNtd69fjlDW1VhftwQ0Q12muBl9eGl3h8y6ru9op1WfYAPgH0IdpbVAk8qACoA3wP/BwhrYy1UqgJhU5czcPoqj+2e3bVuGVGtqjI/bgjJieIajpo2afrHh5mPjz6GJEajET8/X/x8fXXzFMhW9C5mDIradJhLMBgM+Pr64O/np1vQVEbR/OPKVbzU+iVhBesfDwktKvHL0q91PSnhLgVKlKX3+LkMnPF/FCtXTaR0WWAeqq2wUOGs4AmfiHmAaNQcZ2EHWTNiekcs3u2x52dPH9xJ9OtNmPRea66ePylMt3LlysyeFc/nn00Tupx5LwaDAZvNir9/9rv4ZRVfX/ePjd5JyFoynxbcSXS/mz4r33t2YjKbCAjwx8fXR7cVo4IFCxIbM5b5cxdQI0Rbx8QHcfPKeWZEvs7IzvX0aLDThMp1n+KjBdt57YPPRKetPgXsAD5HYLqsu+TkAsCAat97CBgMCFmXUwwG6rfsypjvD/FC98GYzDlnrzizJNy6TvyYUIZ3eILD29x3l3tYAgMDGRoZxcL5i6hdu7Yw3XtRFAUvbwsBAf54e3vnuOX+fyIrk+DJs7c0HIl7nDhz0+1rc2oBkIGXxUJgYICuv0vVq1dn7rfziI2OFdo4e2Lvb4x69UmmD3lNaKOwVhiMJpq0e4sxyw/ydJe+Iq3YTcBbqHNXPwRZz7tDTi0AmgI7gf8BBUSJVnqiKR8t2EHPMf8TXTVqQrojjf/7ZhKDnivL/82eLMy+12Qy0a1rN376vzW81u013ZZOzSYTfv5++Nj0e2pzh3xB+dy+9tDxa6Q59HO3A9h76Irb12blexeFoii/ryb567aapCgKL730Mqv/7yf6vNdHWJ9CxlHhwc+X47upH+JI1X/F6WHxCchL5yETGfndHqo3FGo2lhe1V20voKPL2b+T0z4liwOjULsrhZFbojTjY8I4f2y/UN369esTFfk+Zctqnz+fWQxGAzarVdfmrayQVSOgjQte58laxTUeVea4k5BCUI1xONwsQvQwAsoqOSF2+PSZ00yYMJ6VP6wUqpsbIs13rVvGnJhwrpw9Llp6ORCKenotR5BTCoCMmN7BgLCOooyY3he7R2D28sxGpkunjvDt2AHsXr9cqG6pUsFERkTSpEkTobr3knGsTy/7Xi3JkhVwz7qMG/q0xiPKHN8s3kvXsO/cvl6kFbCW5BRb4S1bNjNy9CiOHBGTqZBBpTrN6BwRJ7rRTjP+jB3+gKSEOyKlM2KH3weECv8TehcACtAWGI/69C9GVFGo9UxbOg4cR95C+jw5ZRX73Vt8PyOGVV/H4UgTZ2nq7+/PWz3f5o3X39C1uc5iseBjs6EY9P4V1oYshQHl8+HUL33x9hK/1fhU51ms2XTKrWtFhgFlF06Xk+SkFJKTxVlo3096ejoLFs4nbmIcN27cEKZrMJpo9MqbvNJ3hEdumQLcunqRJVM/Yv3CGbjEBkVdRPUPmIFqtK0LejrZ1AbmA+EIPM8fXLU2vePm8Wy3MI88z58R0zv5vdbsExjTazAYaN2qNZ99+jkNGzTUbZ/fZDLh6+vjMQ1+meXCxQtuxwEn2tMoWsif2tWLaDyqB7Nl53mixq11+/pnnn4m2+KARXFv7HB6erouaYMGg4GqVarSrl17UpKT2bd/n5BVCZfLyakD29mw6AvMXl4EV6mF4mFHbb19/KjRpAUhjV/kwvGD3BAXO+yHml3TAjiATrHDenyCFkE91ic0pjewQBHaho726JjeQ1vXER8dxtnDu4Xq1q1Tl8ghQ6lYsaJQ3XvRK6ZXFNt3bOfZ5551+/qC+Xw4+FNv8gSI2Q5xuaBB2y/ZtP2c2/cYP3Y8r732moaj0p+01DTs9iTSBRXm/8SJEycYHT2aDRvWC9UtHFyRjoPGi2600wyXy8W2VQuYO34Q1y+cFioNLEDdBhcqLHImzIjpHYpa/QghI6a35VuRePsIk9WUG5fOsnBSFJuWzRKqW7hwYcL6hfHSSy8L1b2fjH1+Ty3cMoPD4aBKtSpcv37d7Xu81iaEr8a30nBU/87kL3+j30c/un29oihs27qNkiVKajiqnENycrLu/QFr1q5h9JhRnDkj9uEypHELOkfEUaB4GaG6WpGabGfFF7GsnDmW1JSk/75AO+zAWCAGNYI42xG1jtsSWIZqlSjMMzmkcQtCpy6j9jNtRXpEa0Zqsp1l00bx6YBOnD6wQ5iu1dtKr3d6MTFuElWrVhWmez9mixk/P1+8LJZcPfmDusJx4cIFduxw/+e8++BlihXyp2bVwhqO7O9s2n6OLv0Wk+50f3KrW6cuvXv11nBUOQuTyYSXlwWn06XbaYHg4GA6d+pCYGAedu7cQWqqmF6hy6ePsHbuZyTcvE7Zx+pj9rDPXqPJTMXaTWjw0mvcvXmNc0f3ipI2A02A14DrqOZ32Up2FwCPAXOBCFRHPyGUrPQYvcZ9S4ueEfj4C5PVjIylqMl9XmLn2qU408XElSqKwvPPPc+nn35G86eaY9IpKc9oMuLn64vV2xuD4ll7ilkhKG8Qs77J2irPynXHCKlUkIplsud8/f4jV3m222wSsuD+BxAeFk5ISIhGo8qZKIqCxWLBbNa3P6BGSA1eebkNiYmJHDp0UEx/gNPJib2/8suS/+Ht40fJSo95XBFv9fXn8eYvU/GJJpw5tFukGZI/8DLwHKqHwPnsEsqun0gQMAx4F4GNhrkh4/rU/m3ER4dxdOcvQnWrVq1G1NAoaj5WU6juvRgUA95WL7y9Pf9Yn7s0faope/dm7YnDbDIwLboFr7fVdoLduPUsrXvO5catrK1O+vv7s2vHLvz93U8R9ERSUlOx2+24srByklX2H9jPyFEj2b59m1DdUpUfp3NEHOVqNhCqqxUup5NNy79h3vjB3Lnu3nFdN3ECs1H7AzQX1nqWNAN9gMVAYwQ5DRpNZpp3eo++UxZToVZjFA98arx19SJzxw3k6xG9uS6uE5UCBQoQMTiCjz74iCJFxHaRZ5Bxnt/XzyfH+/ZnN3nz5mXJ0iVZuofT6WLJqsNcupJAk7qlsFiy9meenu5i/PQtvBb+HYn2tCzdC6B3r9483Vwf3wI9MRmNeHt5oSgKDoeYVb37KZC/AG3btKVKlars2LmTu3fFhIPdunqRjd99xfnjByhd7QlsfoFCdLVCURRKVAihWYd3MJrNHN+9BaeYrR0FCAHeQd0+3wxoJqzlCkBzVNvDKhre8z+pXK85nQfHUbSsUFnNcKSlsnbup8INKcxmM506diIsNFy3pD4As8mMzceq27HCnIbT6aRBowYcOXJEk/sVL+zP6EHN6NSqKkbjw/+5r954kkFjVrNzvzbLnzabjZ07dhKUN0iT+3kqznQn9qQkYfvy/0RSchKzZs1i6qefYLfbhelavG08/+YAXug+GIuX+1HSenL59FEWTo5i64/zRUsfRW2k10RYiwKgPKqRTwsN7pVpCpUqT8eB4whpLFRWU3atW0Z8dBhXz50Qqtu0SVOihr5P8eL6mSAZjUZsNhtmc47NydCNH3/8kS5du2h6z9Il8vB62xDavlCJSmUf3B9w7uIdvlt1mP8t3M22PRc1HUfE4AgG9B+g6T09mbQ0B0l2Ow4dbYUvXbrEhLjxLFm6ROiphTwFi9Gm30iPPpp9YPNq4mPDOX90n2jp1UAYkCXhrLzrgajNfaEI7Oy3+QXyYo/BPNMtzCOT+gAunDjIt7H92bvxB6G6ZcqUIXLIUBo2aChU914Ug4LV2xuv35dCJf/Mq91e5Ycfsuf3o0hBP6pXLEDZUnnx87FgNBpISEzl1Llb7DtylWOnssdNrnTp0mzcsNFjMxuyC5fLRWpKGvYku67HBnfv3s3I0SPYvVusz0jp6nXoEjGR0tXrCNXVinRHGj8v/pKFk6NIuHlNpHQa8CXqioBbwu58AitAD2A0ICzKy2Aw0rhtT17pMxzfPDk/QeyfSLh5jUVThrF+wXRhDn6g7iuH9gujXdt2ui61WywWfHxscuLPBGfOnqFR40YkJCToPRRNUBSF+fPm06RxE72HkmNxOV0kJSeTkpKiWyGQnp7OwoULiJsUlyVPiofFYDDSqE13j7YVvnvzKoumDGPDghlCP9+Bq0AkMBPVVCjTPOwncWlgGvDUQ16XJSrWbkLniDiKV/DMY0POdAcbFn0hvEI0mUy0eaUt4WHh5Mmj33FIk9mEzWbDJPf5H4rvlnxHj5499B6GJvR5rw8fDPtA72F4BOnp6djtdtLS9GkUBLDb7cz8YgafT/tcaJ+Cl82X514Pp0WPIR7p3QLqCu+cmHD2/eK+UZabbAR6Aocye8HDFACdgemA7SEH5Tb5iwbTfkAstZ5uI0pSc/b98iNzYsK5cOKgUN1GjRoTGRFJ6dKlhereS2637xVBWHhYlr0B9KZmzZosX7pcLv0/JDkhdvjkyZOMiRnNunXrhOoWKlWBToPGU73RC0J1tSTDVvja+VMiZRNRi4A5mfnizBQABiAW6J+FQT0UXjZfWvSM4Nlu4TKm9yEJDlZjehvruNSam2J69SY1NZXOXTqzbv06vYfiFiVLlGTF9ysoWLCg3kPxSHJK7PCGnzcweswoTpwQ27BcveHzdBw0nsLB+uWQZIW0lGR++N94vp8eTUpSokjpccBg/iNp8L8KACNqXOHr2ozpwWTE9HYYMJagwiVESGpOij2BlV+N4/sZMThSU4Tp2mw2ur/ZnbffekfXJy2LxYLNZsXgYalgOZm7d+/S6qVWWTYIEk1Q3iC+X/49ZcuW1XsoHk9Oih2eEDeBmzdvCtM1msw0fPkN2vQd6bH9X7euXGDJp8NFxw7Ho9oK/+te0oMKAAMwC3XpP9vx9E5Ql9PJhkUzWTT5fe7cuCJM12g00rZNO0L7hRIUpN/ZapNJPdanl31wbufKlSu0a9+O/Qf26z2UTJEvXz7mz51PtWrV9B5KriLdkU6i3a6bkRDAzZs3iZs4gfkL5gvdnvDLk59X+gynUdseHuv0enz3FuKjQzmx9zdRkrNQi4B/XD56UAEwGhiSHSO6l8ACRWjdaxiN2/TwuCzpDE7s+ZXZ0aGc2POrUN2QkBCiIt/X1VPdYDBg9bbi5S33d7Ob27dv82q3V9m8ebPeQ3kgJUuUZN7ceZQp45lpcJ5ATogdPn78OKPHjOLnjT8L1S1SuhKdBk+g6pPux2fryR+xw+MGinJ9HYFqzf83/q0A6ITqP5xt57XMXt482y2cFj0j8LL5ZpdMtnL9wmnmjR/Mbz/OE6pbpEhRBg8azPPP6Zu7/SjE9OY0UlJS6D+gP9/O/Vbvofwj9erVY+b0mRQoUEDvoeR+XJCcon/s8I+rfiQmNppz584J1a31TFs69I8lX9FSQnW1IsWewLLpY1j1dRxpKdm6teNCXcn/24fGP31yF0NNIMo2s+aQxi3oMmQi+Yvp16GeFVKT7ayePYWln48ixS7unLbV20qPHj3o2eMtXQNzzBYzNpsVo4cuw+UG5s6by8BBA4VauD4IRVHo2aMnH3340SOf5yAap9OJ3a6vrXBaWhrxc+KZNHmiUO8Kk9lC0/bv8ErfEXj7+AnT1ZIbl86ycFIUm5Zl62mf20B14C9LDvcXAAqqxWCz7BhB8fLV6RQRR6UnmmbH7bMdl8vFryvmMG9CBDcvi6t2FUWhZYuWDOg/kEKFCgnTvR+j0YiPj9znzykcP36cQYMHsX7Del3HUaliJcbGjqVu3bq6juNRx+FwYLcn6dofcOXKFcaNHyveVrhAUdqFj6Hui108dkXy4K9rmBMTztkje7JL4ifgae7pB7j/neqE2jmoKT4BeWnd632Pjuk9fWAHs6NDObpjo1DdqlWqMjRyKI8/Xkuo7r0YDAa8vR/tmN6czOLvFjN8+HDOnjsrVDcwMJDw0HB69uwpn/pzEDkhdnjfvr2MHD2KHTu2C9UtVaUWXYZMpGyN+kJ1teKP2OFxg7KrmbwtsDDjP+4tACzAAUCzzh2D0USjV9706OMbCTevsfSzkfw05xOh9o758+enb5++tG2jn32voih4eXnJfX4PIC0tjUWLFzFx0kSOHj2arVpBeYPo3r07b7/1NgEBAdmqJXEPl8tFcnIKSUlJuo7hhx9/ICYmmgsXLwjTzQ3Hye13b/H9jBhWfR2HI03TrZ0TQGUgBf5aAPRAdfrThGoNnqPT4Akea+DgSE1h1ayJLJs2muREMZnZoJ6jf+P1N3jn7V4yplfy0DidTn7b+hvz5s9j0aJFmu3HGo1GGjzZgPbt29OyRUtsNmGGoJIskBNih+12O599/hlffvUFKSnivFG8bL607DmEZ7qFeayhXDbZCr8BfAV/LQD2AFk+tJu3UHG6DZtKSKMXs3or3di5ZgnfjhvIlTPHhOo2b/40EYMiKFFCv6rVaDRgs9owW+SSrqdjt9vZtHkTGzduZOMvGzlw4ECmJwKTyURwcDBP1n+Shg0b0qBBA4Ly6uczIckaaQ4H9kS7rrbC586dIyY2mh9XifXIz1+sNB0GxPJ481eE6mrJ7vXL+XrEu9y4pMk23w7gcfizAGgEZLmTqNYzbXn9w8/x8dcveCYrnD+2n/iYMA5sXi1Ut3y58gyNHEq9evrtWymKgtXqLff5czHp6emcO3eOY8ePcfnyZRITE0lMTMThcODr64uPjw/58+WndOnSlCpVSnr35zIyYoeTkpJwuoS50f2NLb9uYdToURw+nOnMGk2oVKcZnQZPoHj56kJ1tSLxzk2++vBttq1aoMXt6gFbMgqAT4DeWblb0/bv0G3Y1CyPSg8S79xkyScf8dO3U3Gmi+ugDfAP4L33+vBql1dlTK9EIhGC0+kkOTlF19hhp9PJ0qVLiBkbIzR2WDEYqPdiFzoMHIt/Xs/zqnC5XHw9vBfr5k/L6q0mAP0V1FWAM6jn/92i1tNt6DX+W4/r8HemO1g79zMWf/IhibdvCNM1Go107tSFvn366tpEpcb0WjEZ5bE+ieRRQ40dTiItLU23Mdy+c5uPP57C7PjZQo8v+vjnoXXvYTTr2BujybO2O53OdKaGtWf7T4uzcptTQGkFqALsc/cufnnyM2b5QXwC8mZlMMI5sHk18TFhnD8m1lv9yfpPMjQySteAFBnTK5FIMkhLTSPRbscpLqTmbxw/fpwx0aPZ8PMGobqeaiuccPMaQ1pWIuFWllZPKhqBVr+/3KLr0CkedebyypljzHy/OwsnR3H3xlVhuiVLlCR6TAxhoeHkzatTsaSA1WrFz88Xk+zul0gkqCuSXl5eGAwKDoc+TYJ58+alVavWVKtanb379nHr1i0hundvXmPz8tmc2r+dUlUexzfQMxpdLVYbNr/ArMbN/6YA04Ce7lztmycfcWvOYTLn/CfJ5MS7LPt8FKu+mSQ0ptfX15fevd7ltW6v6WqWYrFYsNqsGD00cEkikWQ/TqeTpOQkUpL1tRWe9c3XfDL1E+7eFXcE22S20LxLX1q9MxSrb873t0hLSSa0SRHsd90ulj42Av0At0z5G7XpTo3GLdwVF4LL6eSX775ict+X2ffLjzgFHYMxGAy0eaUNn3wylYYNGurW5Gc0GfH19cXq7Y1BNvlJJJIHoCgKFrMFi9mCMz1dl20Bo9HIY4/VpG2bttxNuMvBgweFNCs6nekc27WJnxd9iY9/ICUq1shmX0pMAAAgAElEQVTRjdFGk4lrF05xar/bbos3jMD7gFtr0i/2iKBw6Zxr9HNy31amhnfgpzmfCA3tqV69OpMnTaFL51fxselj5mMwqOf5fXxs8qlfIpE8FAaDAS8vL4xGIw5Hui6nBWw2G82aNqNZ06c4fuI4Fy6IcRNMSUpk17pl7Fq3jMKlK5GvSEkhuu6QmpTItlUL//sL/5kUBTUlyN+dq6O/P0zBkuXcFc82bl4+x9zxg/lt5bdCf3ELFy7MoAGDeOGFF3WrHKV9r0Qi0RQXJCUn62orDLBi5Qpix8Zy4cJ5YZqKolD7mXa0HxCbI22Fzx/dR9TLbvsa3FCAJMAt95dp2+05ymIxNSWJlV+MZcXMWFKTxcWkZsT09ujRE6u3VZju/ZgtZnxsNgzyiV8ikWhMTogdTk5OZuYXM5k2/XOhBYnFy8rzbw7khe6DsHjnHBvspIQ79K4b6O7lCQqQDrg1Y0zdcgurr1uLB5rz2w/zmDd+ENcvnvnvL9YIRVF4/vkXGDRwEEUKFxGmez9GoxGbzSoT2SQSSbbjSHOQaNfXVvjSpUuMHRfL8u+Xi40dLliM9uHR1HmhU45YYU24dZ0+DfK7e3myAtwB/Ny5Om7teQLzF3ZXXBNOH9xJfHQoR7b/LFS3SuUqRA2NyhExvV5eXjnil1EikTw65ITY4R07dzBy1Ej27dsrVLdsjfp0GTKRUlX0+/wHuH7xDAOeLuXu5bcMgNtOAmcO7nT30iyTcOs68WNCGd7hCaGTf2BgIEMjo1gwf6Fuk7+iKHh5W/AP8MPbW+71SyQS8XhZLAQGBOiaH1LzsZosnL+QSRMnU7iwuIfRY7s2MbxjHaYPeY3b1y4J072fLM7BV41AR9y0Ac5fNJhKdZplZQAPjSMtlVWzJvJxaFsOb98gbPnHbDbzxutv8smUT3ii9hO67bObTSZ8/XzlU79EItEdRVEwm814WbxIdzlxpos/NqgoCuXKlqN9u/a4XE727tsrbHvi7JE9rJs/DYPBQHDV2hgE26pvXPwVR3f+4u7lhxXgC9R84Icmf9FgolceEZYBoJd9b/369YmKfF9f+16jAZvVKhPaJBJJjiXNkYY9MUnX/oCLFy8SN3EC3y35TqhugeJlaBs6mtrPthOi53SmM+TFilw5e9zdW8wwAmUAt4yQ7XdvUbxcNYqUqezuADLFpVNHmBH5Oos+HibUvjc4OJjY6LGE9gvTzb5Xjem14ufrq2tioEQikfwXRoMRLy8LRoORdEc6LsT3B/j5+fH0089Qu/YTHDh4kOvXrwnRTbxzk62rFnBk2wZKVHqMgKCC2aq39ccFrF8wPSu3+FJBzQXe5O4dipSpzAfztmLx0v74W+KdmyyZOpw1304l3SEusSrAP4A+ffrSpXMX/WN6bTYUg1zql0gknkVG7HBycrJuY0hPT+fbb+cwacokYfkCAAajiabt3+bl9z7KlqC81JQkPmpXiwsnDmblNnWMwEXgPcCtGfzuzavY79wipNELWRnIX3A5nWxaNovJ773EwV/X4BJkR2kwGGjdqjWfffo59erW022f32Qy4evrIxv8JBKJx5LRH2CxWHA6nbrYChsMBqpXr0779h1QgD179wgZh8vl5OS+rX88oQdXewKDhg+Ts8eEsnfjyqzc4hoQbgRcQE2gqrt3OrV/G1Zff8qE1MvKgAA4+NtapvR9hXXzPiclKTHL98ssdevW49NPPqVjx07YbPoYPRgMBmw+NmnmI5FIcg2qrbAFk9GkbgvoYCvs7eVN/fpP8swzz3D61CnOnj0rRDctJZkDW35ix0+LKVSyPPmLuxW78xdWfR3H8umjs3qbxcDCjJIkCeiclbvt+2UVToeDCrUboygPP3ldPX+SL4f1ZEHcEO5cv5yVoTwUxYsXZ8yoMQzoP4CgoHzCdP+CAt7e3vj6+mAyie0ilUgkEhGoscMWXWOHg/IG8VLrl6hcuQr79u7l9u3bQnTv3rjKpmWzOHNoF8FVarm1LeB0prN4ygcsnBylxZAGA8cy1peNwCncPA54L6UqP85rH3yaaYOEhJvX+OHrOFZ9HUdairi9IpvNRq93evHG62/q2llvtpix2awYBZ2kkEgkEr3JKbHDX/3vKz79bCoJCeLC4kwWL57u0pfn3uiPf94Cmbrm1IHt/O/Ddzh1wO3kv3s5jZoA7Lx3g3kIkOV1BVD3fso/3pAGL71OlfpPk6dA0b/8e4o9geO7t7Dt/xbxy5L/kZoiztNZURReav0yA/oPIH9+ty0Us4zRZMTHZpNP/BKJ5JHF4UjHbrfjcDh0G8PVa1eJi5vAosWLhPYpWLys1G/djdpPt6FMSF28bL5/+fdbVy6wf/P/sfG7/3F423ott04GA7EA9xYAvsBxIHMlyUNg8wskf7FgtSs04Q7XL53FmS7+B14jpAZRQ9+nenW305OyjEEx4G310tU9SyKRiOXcuXOsXbeWCxcuoCgKwcHBNGvajKCgIL2HliNITU3FnpSki5FQBvv272PkqJHs2KHJU/ZDYTCaCCpUHJu/Guxz7fwp/r+9+w6PotrfAP5uTTZl0+lIly6GohRFlHqlQwhVUBHpKl0FbAj6swCi2L0I0psJvXekN6kBRUo0JCSURNJIsr8/FryAgWxmZufs7Lyf58nzXJM953wv2ey8M3PmnBupV90xVCKcj/7fAO4OAADwGoAp7hhVpKJFi2LkiFFo17Ydt+m9Q0ZGBmKXxWLT5k2IvxiPrOwsRfoNDgpGeEQ4Hq70MGrWqImGDRsiICCg4IZe5MyZM4iJjcGhw4eQlJQEq8WK0g+VRqMGjdC+fXsEBQWJLlGSc+fOYfmK5Th67CjS09MRER6Bxx9/HG1at/GI3/Eff/yBxUsW4+Chg0hKSkJwUDCq16iOdm3boa6ApbvPnTuH8W+Nx+o1/56xbTKZ0L1bd4wfN96tQSAhIQELFy3E3n17kZKcgoCAAFStWhXt27cX8m9yPw6HA5mZWUK3HXY4HFi1aiU++uQjJCQkCKvDjV4D8Nnt/7j3SGQGsBtAHTUrcheLxYLu3bpj2GvD4e/vL64OqwX+Nj8YTZ4zs3/1mtUYPWa0Km9ys9mMRg0bITo6Gu3btffqqx+XLl3C2HFjEbss9r6v8ff3x/BhwzFk8BDNLO509epVjB03FosWL8r3UqTdbsebb7yJvi/2FRJws7Oz8fY7b2PGjzPuezm5RYsWmDZ1GsLD1Znsu2vXLjzX57kCnz8vXao0Fi5YiEqVKik6fm5uLj76+CN8/sXn993Ct1mzZpg6eSqKFSum6Nhy5OXlIf1GOrJvqrf2y70yMzMx66dZ+PKr6UhPV29reTc7AqAegH/+YfP7S60NYA+cYUCzWrVshTGjX0fJkiULfrGbOLfp9YPF4ln/lDN+nIHRY0YLeRwnIiICAwcMxMv9Xva6IPDrr7+iW49uSEpKcun1TZ5qgp9m/QSbTflFtJSUmJiIdh3a4fffC15ytFfPXpgyeYqqISA7OxtdunbBzp0Fr4leulRprFyxEiVKuHf77j/++APNWzZ3efGZsmXLYsO6DQgOlry3+11u3LiB5194Hpu3bC7wtaVKlULM0hiULVtWkbGVknMzxzk/QOCywn8l/IWPPv4Iq1evEvJ5qaAcAI8BuGv3oPxOPxIApANooUJRiqtQoQI++fhTDOg/AHa7XUgNBqMBfjYb/P39PO4Mb/ee3ej3cj8hi3IAQHp6OrZu24olS5egYsWKKF9O/nOxnuBi/EW0bdsWycmuLzt67vw5HDt+DJ07dfaY20L3ys3NRZfoLjh+3LX9N349+it8fX1R//H6bq7sf0a/PhrLly936bWpqanYs3cPevbo6dZ/86GvDsWxY8dcfv21a9eQk5ODp59+WvbYV65eQZfoLti1a5dLr09NTcUvu35Bj+49POrzymgywsfXB0aTCTk3xUwSDAwMRKuWrfBU46dw+vRpXEoUt/OfTKPgfPb/Lvf7be8CUAUyFgdSW1BQEEaOGIUPP/g/oUnWarXCHhgIi8XikR/qfV/qiz///FN0Gbh+/TqWLFmCtLQ0PNHoCY/64JGib9++OHmq8Mtynj17FsWLFUetWrXcUJV88+bPw39n/LdQbXbt2oXmzZqrcln5VNwpDBs2rFBnZwkJCShbtixqVHfPx9uFixcwavSoQrc7fuI4Bg0cJOvJoMTERHTu3Bm/Hv21UO2SkpJQongJPProo5LHdhezyQRfHx8AELbJUNGiRREV1QUPlS6Nw4cPa+22wHwAI/P7wYNuSr8IoODrR4KZzWZ0je6GdWvWo0/vPsIOJBaLGfYgOwIC/D3ywA8AcXFxOCBghuv9OBwOfPX1V4juFo20tDTR5Ui2e/dubNm6RXL7jz/9+L73aEWbOWtmodvcvHkTg4YMUmUN+Pnz50u6mjVv/jw3VOO0eZO0j8309HTs3rNb8rhnzpxBy/+0xImTJyS1nzV7luSx3c1gNMDPzwa73Q6LxSKmBoMBHTp0xIb1GzF0yFCt7My6A8BL9/vhgwJABoB2ACRvNqyG+o/Xx4T3JiAkJETI+EajEQEB/ggMDITZw89i9+7dK7qEfO3YsQOdu3RWdTEOJc2YOUNW+4SEBKxbv06hapRz48YNHDlyRFLbuLg4vD/xfYUr+rfdu6UdMPfu3eu2e7rxf8ZLbit1idpDhw6hTds2iI+XPvaxY8dw44Z6y69LYTIZERgYgEC7uN1RbTYbhg55BY0aNhIyfiHsANAKtx75y09B09L/BtAMzksIdIfb2/QGBwdpJQl69P2rgwcPos/zfXBT4MxfKVJTU7Fq1SrZ/bjzjFSqpKQkWZdcv/3uW2zfvl3Biv7t8mVp24NnZ2cjJSVF4Wqc5FwelnIA3rFjBzpFdULKFXn/f3Jzc3H1qluePVecxWyB3R4IPz+bx15xFexnAC3xgIM/UHAAAIBMAD0BfABA3CoNHsRqtSI4KAg2m7ZmsYtcbcsVW7dtxYT3J4guo1CWLF2iyHPLGzduRGKientguELubYm8vDwMGjLIrduw3pSxTbin3nYpjNVrVqNr966K3UKz+Xn2Eyl3MhgM8PX1RVCw3eueKJIhD8CHAKLgnMz/QK4+mJ4H4E0AT8K5WqAumc0m2O2Bzvv8RqZOd/jq66+wafMm0WW4bO68uYr0k5OTg8VLFivSlydJSEjA2HFj3da/nD00cvPEPV6mhFmzZuH5F55HVpYyC3gVKVIEYaHaW5nQaDDCz8+GoCC73pdWvwCgOZzL+rt0sl7YlWl+gXOdgA/gnCOgC0ajEf4B/rDbdf8GczuHw4HRY0Yr9qHmTqfiTuHQoUMFv9BFSoUJT7Ng4YIHLowkh5xts0U9CquEKVOnYMSoEYrOim/bpq1ifYlgMjlP0AIDAvS2uVoGnGf9NQEU6uxJyl9PKpxXAyoD+BLOeQJey9fXF0FBdvho5D6/Nzh37hx++OEH0WUUaO5cZQ/YcXFxigYKTzJ69GiXF0gqDDmra4pcd14qh8OBt995GxMnTVR0EqOvry+GDBmiWH8iWawWBAXb9TA/4AaAr+B8ZP8NOI/NhSJnbdqLAAYDKA3n+sK74EVzBHT0JvJI07+a7tFXAdx1yd4TJwMqIeVKCoYMHaL4zHs9XQG4efMmBg8ZjOlfTle0X4PBgE8/+RSlS5VWtF/Rbp+8aWWStosccC7XPwxAKQCD4Lz0L4kSi9Nfg3NzgYYAHgLwAoAv4AwED7pNkAfgNIBFAOYoUIcidHwZyaMkJiZixYoVosu4r3Xr17nljHbxksWqPD8vwqbNmzB79mxF+5QTAEQtKiNFRkYGej/fGwsXLVS0X4PBgInvT0TX6K6K9uspbj+m7YG3b+fDeew7gwefOKfDeSz9As5j60MAGgCYCuexVxal/0X+BPDjra/b7ADCAITDmV7Sbn1dgfMJA8C57HBPhWspFG7T63kWLFyAzp07iy4jX+66X5+amorVa1ajY4eObulftLHjx6JRo0YoX16ZJaDlhPQ8hzauAFy/fh09e/WUtUhQfsxmMz795FP07CH0o1cVtydwZ2VnIz09HY484ev6zwFw+wzHBiAEQPCtr0wAV299ue8RGqiz4U/qra8/VBir0Dxxm15P9OILL7r0QZGRmYGjR49i7ry5OHr0qKwxd+zcgfT0dPj5+cnqR2mXL1/Gxo0b3db//PnzvTYApKenY8jQIVi+bLkiC7l4+xWApKQkRHeLLtS+Aq6w2WyY8cMMNGvWTNF+PZ2P1QqrxSJ82+F7ZNz6+kvtgT3qmojaLGYL/Pxtml+HXg3FihVzeb36+o/Xx0t9X8LX33yNd959R/IHbXZ2Nnbv2Y1nnn5GUnt3WbBwgVsXLNq8ZTP+/PNPoTtZutPefXsx/cvpeGXoK7L7kjMJ0APOAh/o/IXziOoShT/+UPbcKSgoCHNmz1F1wyZP4lzEzRc+VivSMzK8Yj0IqTxng3oVecJykt7OYDBg4ICBeHv827L6kXsVwR3cPVEvLy8PixYvcusYon34fx/i2HH5Z7XeegXg5KmTaNO2jeIH/yJFiiA2Jla3B/87GU3aWcbdXXQVAAwG8RtK6M2AAQNQvVp1ye1/++03BauRb/+B/YiLi3P7OHPnzdX6/uMPlJ2djf4D+st+0kNOgPfUpwD2H9iPdu3bISEhQdF+yzxUBiuXr3TbLohaZbGYEWgPhL+f527k5i66CQBWqxXBwUHw9eW9fjUZjUZ07Sp9hrGnLY+r1mI9Z8+exb79+1QZS5S4uDh8+H8fyurDaJBxBcADVwLcvGUzOnTsoPia/DVr1sSa1WtQrlw5Rfv1FgaDAT6+ziXe9XSM8PoAYLaYYQ8K9Ohter1dzRo1Jbf1pB0CMzMzERvrnhXt8uOtawLcafqX0/HLL79Ibu9tVwA2bNig+GOgDRo0QOzPsYiIiFC0X2/0v22HA2GxeP8UOa8NAP8s3xsYCLPJ+3+RnszDnr+VbPmK5bh+/bpq48XExHjSTGW3yMvLw9BXhkrezEbWQkAaXAmwsFq2bIlFCxbBbreLLkVTTCYTAgMDvX6emPcFAAP+2aaXy/d6htOnT0tuGxIaomAl8qi9Vn9aWhpWrPTcxZCUcv7CeYx/a7yktrKWAvbAKwBKiu4SjZkzZnJtExm8fdthrwoAVqsVwXbtbdPr7Zb8vERy29CQUAUrke7CxQvYuXOn6uPOm+f9twEAYPac2ZLCjrc+BSDXy/1exheff+E1V99E8uZth70iAJjNJgTe2qZXzhkBKS8mNkbWPd4yZcooWI108+fPF3LGuH3Hdpw/f171cUUYMXIELl++XKg2elgJsDAMBgNGjxqNSRMnyQpH9G//bDtst8PiJcFK8+8Q59r93vML8Sbr16/HK6/KW+ylXr16ClUjncPhwIKFC4SNrfT6754qJSUFw0cML1QbPW0GVBCTyYTJn0zG6FGjRZfi1Uy3Tji94eqK5gMAU65nSUlJwZatW9Dv5X7o0asH0tPTJfdlNBpRO7K2gtVJI/csXO4ua/MXzPfqNQHutHrNasxfMN/l18uZoOVNtwCsViu++/Y7PPfcc6JL0Q2DUftzArQfYUgVkz6YhEkfTFJ1zIYNGyIwMFDVMfMzZ668zSpfe/U1zJk3BwcPHpTU/vz589i1axcaNmwoqw6teOPNN9CoUSOXgpOcD2FPXwrYVf7+/pj540w0eaqJ6FJIY3j6TB6re7fuoktAamoqVq1aJbm9r68vOnToIPv/ix7WBLgtLS0NAwcOdOkSvd6vAERERGB57HIe/EkSBgDySHa7HW3btBVdBpb+vFTWs/ht2rRBUFAQOnfqLGsGceyyWI9aFMnddu/ZjW++/abA18lZCVDrkwBLlyqNFctW4JFHHhFdCmkUAwB5pCGDh3jENsByn/3v0b0HAGeg+c9//iO5n/T0dCxbvkxWLVoz4f0JOHHyxANfo9crAJUrV8bKFStRoUIF0aWQhjEAkMcpWrQoBvQfILoMnIo7Jfm+PeA8Q3ui0RP//LeebgMoMTk3OzsbQ4YOeeDWy3pcB6B27dpYFrsMJUqUEF0KaRwDAHmcYsWKecSHs9yz/+7du991gGryVBOULFlScn+7d+9WfHtYd6lYsSKaN28uu59ff/0VH3/y8X1/LicAaHESYOMnG2Pp4qUICw0TXQp5AQYA8jhHjhxBuw7tCr0ojJJycnKwePFiye0NBgO6Rt+9C6LRaER0l2jJfYpcj6CwDAYDPv/sc4SHh8vua+pnU7F79+58f6anpYA7d+6MBfMXICAgQHQp5CUYAMgjHT16FJ06d1J18507rVu/DklJSZLbP/HEE/muYti9W3dZa4rPnTfXI66OuCI8PByffvKp7H7y8vIweOhg3Lhx418/87btgO+n74t98dX0r2CxWESXQl6EAYA81slTJ/Fi3xcfeA/YXZSa/Hev8uXL47F6j0nu96+//sKOnTskt1db62dbIyoqSnY/58+fxzvvvvOv73vbdsD5CQwMxID+A7joGSmO7yjyaFu3bX3gPWB3uHz5MjZu3Ci5fWBgINq0bnPfn3fr1k1y34C2JgMCwEcffoRSpUrJ7ufHmT9iw4YNd31PD5MA09LS0Lpta5w8dVJ0KeRlGADI43027TPs3pP/PWB3WLhooayrDp06dYLNZrv/zzt2gr+/v+T+V6xYIezWiBR2ux3TPpsmeztVh8OBV4e9iitXr/zzPT1cAQCApKQkdOzUEceOHxNdCnkRBgDyeLm5uRg+YjhycnJUGW/BAnkT7e53+f82f39/tH62teT+MzMzERsbK7m9CI2fbIx+L/WT3U9iYiKGDRv2z3/LWQo4L1c7AQAAkpOT0b5Dexw4eEB0KeQlGABIE06fPo1589x/6fvAwQMFLj7zIBUrVkSd2nUKfJ2e1gS47e233kaVylVk97Ny1UosXboUgP62A75+/Tq6RHfB3n17RZdCXoABgDRj8pTJbr9vK3fy33O9XNuN7X5PCbhq3/59OH36tOT2Ivj4+ODL6V8qMpN91JhRiI+P18UcgHulpqYiqksUtm7bKroU0jgGANKMi/EXsW79Orf1n5mZiZiYGMntzWYzojq7NuM9v3UCCksrawLc6ZFHHsGw14YV/MICXL9+Ha++9qqseQVamgNwr/T0dPTs1RObNm8SXQppGAMAueTNN95EclJyob7O/nYWWzZtwfhx42Wd7d5p5qyZivSTn+UrlsuaXNesWTMULVrU5dd369ZN1hnsgoULNHkWO3zYcERGRsruZ+u2rbL2R9Div92dMjMz0eu5Xli5aqXoUkijGADIbex2O2rUqIFXX3kVu3buwtg3x8qatQ0A27ZtQ3p6ukIV3s1dz/7fz0OlH0KDBg0kj3fp0iVs3rJZcntRzGYzvpr+1QOflHCVnMWatLgU8L2ys7PR96W+WLR4kehSSIPMogsgfbBarRj22jA8/PDDeLHvi5LPvrKzs7Ft2za0atVK0fouXLyAnTt3yupj7NixGP/W+EK1uXbtmqwx582bh2ZNm8nqQ4SKFSvirfFv4Y033xBWgxYnAeYnJycHQ4YOQU5OjuzJpaQvDACkqtbPtsbrY17HxEkTJfexb/8+xQPA/PnzZd8Tvhh/UaFqXLd6zWqkXEnR5OYwL/V9CRs3bsSGjRsKfrEbaP0WwJ1yc3PxyquvID09HX1f7Cu6HNII3gIg1Q0ZPATly5eX3P5U3CkFq9HWJjv3ys7OljVxUSSDwYApk6cgJCREyPhangSYH4fDgdffeB1ff/O16FJIIxgASHUWiwW9n+stub3Sj79t37Ed58+fV7RPNWlxTYDbihcvjg8mfiBkbG+6AnCbw+HAuPHj8Mmnn4guhTSAAYCEaNq0qeS2V69eVbAS+ZP/RDt8+DCOnzguugzJoqKi0LFDR9XH9bYrAHf68P8+xHsT3hNdBnk4BgASolzZcpLbpqWlweFQZgZ3amoqVq7U/mNUWr2FcdsnH3+CEiVKqDqmUu8hTzXt82l49713RZdBHowBgIQwm82Sn4HPzc1V7PLt0p+XIiMjQ5G+RFq4UN4GRqIFBQUpsmFQYXjjLYB7ff7F5xg7bqzXhx2ShgGAhEhKSpJ8CdZms8FsVuYBFq1f/r8tOTlZ1hbGnqDJU03Qp3cf1cbzxFsAgwYOQtmyZRXt85tvv8HwkcM98v8vicUAQELs2rVLctugoCBFajgVdwoHDx5UpC9PoOXJgLdNeG8CKlSooMpYnngFoGTJkli5fCUqV66saL8//fQTBg4eqNqOmqQNDAAkhJyVy8qVkz5/4E7ecvZ/27r165CSkiK6DFlsNhu++PwL2StGusJTz4iLFi2KmKUxqFa1mqL9LlmyBAMGDtD0rSJSFgMAqW7Hjh2yFn+pWLGi7BpycnKwePFi2f14kps3b3rFkrD16tbDK0Nfcfs4nhoAACAiIgLLYpcpsmfCnWJiY9D7+d7IyspStF/SJgYAUtWlS5cwYNAAWX3Uq1tPdh3rN6yXtY68p5o71zuuaowZPUbxg9+9PDkAAEBwcDAWL1yMunXqKtrv+vXr0btPb2RmZiraL2kPAwCp5uSpk2jdtjUuXbokq58nn3xSdi3ecqC814mTJ3D06FHRZchmNpsx/fPp8PX1ddsYnh4AAOd8l6VLluKJJ55QtN+NmzaiS9cu+PvvvxXtl7SFAYDc7vz583jr7bfQtFlT2SvuVa9eHaVLlZbVR3JysrD159XgDZMBAeDhhx/Gm6+/6bb+PXESYH78/Pwwb848NHmqiaL97tq1C127dUVaWpqi/ZJ2cDMgcsnqNasR/2f8fX+eej31X88a30i/gT/++AO///67YnV07dJVdh8LFi7w6olQixcvxjtvvwOr1Sq6FNkGDBiAdRvWYceOHYr3rYUrALfZbDbMnTMXfV/qi9VrVivW7569e9ChUwcsWrgIoRksWAMAAB0/SURBVCGhivVL2sAAQC45dOgQDh06JLQGm82G6Oho2f3MmyfvDHnOT3NQpUoV2XU8yKjRo7Bp8yZJba9cvYK169aibZu2ClelPqPRiC+/+BKNmzSWvXXyvXLztHEF4Dar1Yofvv8BL/d/GStWrlCs3yNHjqBtu7ZYungpihYtqli/5PkYAEgz+vTug/DwcFl9HDh4QNZughUrVkTLli1l1eCKXr16SQ4AgPM2gDcEAAAoUaIEJrw3AUNfGapov4487a2OZ7Va8f1332Pg4IH4+eefFes3Li4OnaI6Yfmy5bwSoCOcA0CaEBgYiKFD5B8A5D77/1yv52TX4IpWLVshLDRMcvtNmzYhMTFRwYrE6t6tO9q1badon1qZA3Avs9mMr7/8Gt27dVe037i4OPR5vo9m/12o8BgASBNeH/O67MuTmZmZiImJkdzebDYjqnOUrBpcZbVa0alTJ8ntc3JysHiJd61z8PHHH6NIkSKK9aelOQD3MplMmPbZNPR7qZ+i/e7atQvzF8xXtE/yXAwA5PHq16+Pvi/2ld3P+g3rcf36dcntmzZtquo9UrlneEuWLlGoEs8QFhqGyZ9MVqw/rc0BuJfBYMCkiZMwaOAgRfv97vvvFO2PPBcDAHm0sLAwfPfNd4ps/rNl6xZZ7Xv26Cm7hsJ45JFHUL16dcntjx07hitXryhYkXitWrVS7Pfg5+enSD8iGQwGvPfue3jt1dcU6/PYsWOaX1KaXMMAQB7LZrNh9k+zUbx4cUX6+zP+T8ltw8PD0bxZc0XqKIxuXbtJbpuXl4e//vpLwWo8w8T3J6LMQ2Vk91OsaDEFqvEM48aOw+tjXlesvwsXLijWF3kuBgAdCQwMFF2Cy3x8fDDjhxmKLPv7DxlbzUd3iYbFYlGuFpXGNRik/5+22+3S2wZKb1uQgIAAfPH5FzAa5X181Y6srVBFd5PzdxYcHCy57cgRI/HuO+/K+p3fZrGq/14n9TEA6EiZMvLPmtQQFBSERQsWoVmzZor2W6G89G1mu3dXdsa1q8LCwiRfeTCZTChbpqzksSMiIiRfJld6T/t7NWjQAAMHDJTcPjQkFI0bN1awov+R83cm92908KDB+PCDD2WFAJPJJHu1TdIGBgAdearxUx6/Olz1atWxdvVaNGzYUPG+pT6/X7dOXVStUlXhalzXq2cvSe0aNWwEf39/yeOazWY88/Qzktq2aN5C8riuGvvmWMlb5vbr189tfwtNn2kqaTvj0JBQRTb+6ftiX0yZPEXyFZJ69eohKChIdh3k+RgAdMRut+P5Ps+LLiNfZrMZA/oPwNo1axXZ7jc/TzR6ArVq1Sp0uxHDR7ihGtc1a9ZM0oFu8ODBsscePHhwoc8my5Urh9atW8seuyC3V8Yr7CX36tWrK7KmxP0UKVIE0V0Kv2LlwIEDFZnsCjhD45dffCmpv6GD3fdvQ56FAUBnxowegwoVpF8Kd4enmzyNDes34P0J77t19zej0Yipk6cW6rJ2dJdoNG+u/uS/OxmNRnw29TP4+Pi43KZb125o+kxT2WPXq1uvUM+aWywWfDblM9WuNFWqVAnz5sxz+Yy1YsWKmPPTHLe+zwDg7bfeRqlSpVx+fWRkpOKP80VFReHbb74t1BySqKgoVVa6JM/AAKAzQUFBWDh/IR5++GGhdfj6+qJjx45Yu2YtFi1chBrVa6gybs2aNTHzx5kuHTDat2uPKZOnqFBVwSIjIzFzxkwEBAQU+NoO7Ttg8qfKPS//3rvvuXQbwmaz4Zuvv3HL7ZsHqV+/PjZt2ISnmzx939cYjUb06N4Dq1euLtSBWarw8HAsnL/QpXv6kZGRmPPTnEIFPFe1a9sOs3+a7dL7vV3bdpg6eariNZDnkj9dVBktAKyV0vDpJk9j0cJFCpfj/f7++298Nu0z/PDfH5Camur28QwGA8qUKYOGDRqi8ZON0bJlS6FPJVy4eAEffPABfo75GTk5OXf9rGzZshg1chSiu0QrMqNaSefOncP7E9/HylUr/7WjYbly5TByxEh0jZa/Y2J+YpfF4qOPP0JcXNxd3zeZTGjZoiXGjxuPSpUquWVsVx05cgQrV63E8RPHkZGeAbvdjsjISHTo0EGRRwcL69q1a5g8dTJmzpyJGzdu3PWzsNAwDBw4EAMHDHTLwf9OFy5ewKQPJiEmJuZf7/cyZcpg5IiR6Na1m8e93z1Zj149sG7dOqnN2wJQbkcniTzlt80AIEh2djb279+PCxcvIDsrW3I/Vh8rbDbbXd8zmUwIDAxEeHg4KpSv4PbLrlKkpqZi7769SExMhK+PLypXqaza1Qg5Uq6k4OCBg0hISICfnx+qVK2C6tWqq/IBfvr0aZw4eQJpaWkoWqQo6taryw1kCpCVlYV9+/Yh/s94GI1GlC1bFnVq15E0WVCO1NRU7N27F5cSL8HP5ofKVSqjejXpi03pGQOAchgAiIhIM7whAHAOABERkQ4xABAREekQAwAREZEOMQAQERHpEAMAERGRDjEAEBER6RADABERkQ4xABAREekQAwAREZEOMQAQERHpEAMAERGRDjEAEBER6RADABERkQ4xABAREekQAwAREZEOMQAQERHpEAMAERGRDjEAEBER6RADABERkQ4xABAREemQuZCvDwIQ5oY6ikltmJGRgfPnzytZC5Fm+Pj4ICIiAiaTScj4eXl5uHz5MjIzM4WMTyRKRkaGnObFAJRXqJQ7JQNIdfXFhgJ+XgtAFIA2ACoDsEmvi4jcwWg0ol7deujWtRu6d+8Os7mwub5w8vLysHDRQsydNxd79uxBbm6uW8cjokJJBxAHYCWAxQCO3O+F9wsAlQFMAtDxAa8hIg9TvVp1zJo1C2UeKuOW/hMSEtDnhT44ePCgW/onIsX9DOANOEPBXfI7uPcA8AMAXzcXRURuUKxYMaxfux7FixdXtN+UKylo0bIFb7kRaU8mgH4AZt/5zXsnAY659QIe/Ik06tKlSxgydIji/Y4YMYIHfyJt8gXwE4A37/zmnVcAogAsBC/5E3mFZTHL0LBhQ0X6Onr0KJ5p9gwcDoci/RGREA4A3eA81v9zBaAkgB/Bgz+R14hdFqtYX8uWL+PBn0j7DABmACgN/C8AvAfAX1RFRKS84yeOe2RfRCSUH5zHfJjhPPvvI7QcIlLcub+Sb2y/aldkuv5vF5MegXMdECLSvt4A3jYDaAdAzCoiROQ2oSXL+l+7aX5Skb5KVcDZk4eV6IqIxDMCaG8E8KzoSohIeZUeVWYCIABUfLSBYn0RkUd41gignOgqiEhZRpMZ9Vt3V6y/x1pFw+LDp4OJvEh5IwBlVwshIuGeju6PYmUrK9ZfSNFSaNF7mGL9EZFwJQwAsgBYRVdCRMqoXLcxRn67Fmarj6L95uXm4LOhHfDrtlWK9ktEYpgAjAcnARJpntFoQpPoAej/f7MVP/gDgMFoxGMtuyArIx3nju+HIy9P8TGISD2yrgBElCwHGLh2EJEoRpMJQeHFUCmyERq27YUSFaqpMm7i+TP4ZflsxO3fhuvJCcjNyVFlXCK62+X4s5LbygoA3x3KhNnCuwdEREQivFDj3i19XCe9JREREWkWAwAREZEOMQAQERHpEAMAERGRDjEAEBER6RADABERkQ4xABAREekQAwAREZEOMQAQERHpEAMAERGRDjEAEBER6RADABERkQ4xABAREekQAwAREZEOMQAQERHpEAMAERGRDjEAEBER6RADABERkQ4xABAREekQAwAREZEOmeU0XvPjJzAaTUrVQkRERCoxAMgCYBVdCBEREamHtwCIiIh0yAggR3QRREREpKqbRgCXRFdBREREqkowAvhLdBVERESkqr+MALaLroKIiIhUtc0IIFZ0FURERKSqWAOcjwIeABApuBgiIiJyv18BRBoBOACMEFwMERERqWM0gLzb6wBsBjBLYDFERETkfrMBrAWcl/9v84EzCDQQURERERG51V4ATwHIBO5eCTALQEsAywQURURERO6zDkAr3Dr4A8C9O/lkA1gE4CaAx8E9AoiIiLTsBoCJAAYASL/zB/lt5ecAsA3Af2/9vCSAIDcXSERERMq5CGAGgO4AVsB5bL+L4d5v5MMAoBaAygCKAyjqYrv8hAPoK6VhSEgIukR1kTgsSXH5cjJ+jlkqqW1ISAiaPdNM4Yrc5/iJ4zhx8oSktrVr10HdOnUUrogeZP+BAzh48ICkttWrVUe1qtUUrsh9NmzagKtXr0pq27FDJ0REhCtcET3I0qVLkZySLLX5jwASJbZ13GqbACAOwBHkc9C/k9nFTg/f+pKrOiQGgPCwcIwcMUqBEshVx44dlRwAwsPC8ULvFxWuyH3mzJstOQA0atgQQ4e8onBF9CCffzFNcgB4tFYkenbrqXBF7nPo8GHJAeC5555Djeo1FK6IHmTnzp1yAsA0AIcULOeBuB0wERGRDjEAEBER6RADABERkQ4xABAREekQAwAREZEOMQAQERHpEAMAERGRDjEAEBER6ZArCwF5BIPRAJuvr+gydMXH6iO6BE0wm818b6rMbNbMR5dQvlYfvjdVZjRq57xaM39FRoMRNj+b6DJ0xceXAcAVFouF702VWSwW0SVogo+vD9+bKjMYpa6Urz7tRBUiIiJSDAMAERGRDjEAEBER6RADABERkQ4xABAREekQAwAREZEOaeYxwHPnz6Fp86aiy9CVjIwM0SVowsxZM7F23VrRZejKpUuXRJegCQMHD4TNxscA1XTmzBnRJbhMMwEgMzMTR44cEV0G0b8kJiYiMTFRdBlE/3L69GnRJZAH4y0AIiIiHVI7AGSpPB4JorWV2rRWL0lntVhFl1AofG/qiqrHSLUDQILK45EgYaFhoksolJCQUNElkEpCQ7X1uw4NCRFdAqnnLzUHUzsA3ABwVeUxSYDwsHDRJRRKRHiE6BJIJRHh2npvau1viSRLA3BNzQFFzAHYKGBMUtmjj0aKLqFQqlWtBl/umub1fH19UaVyVdFlFIrW/pZIsg1qDygiAMQIGJNUZPO1oVbNWqLLKBSr1YpIftB6vTqRdWC1amsOQGStSIZTfYhVe0ARAWARgLMCxiWVtG3dVnMfsgDQsX0n0SWQm2nxd2y1WtHmP21El0Hu9Secx0ZViQgA2QDeETAuqcAeaEeXztGiy5CkRrUaqP9YfdFlkJs0rN8Q1apWE12GJNFRXREQECC6DHKfcQDS1R5U1DoAswHMEzQ2uYnBYMCwV4fD399fdCmSDR30CicEeqGw0DAM7D9IdBmSBQQEYPTwMTAauXSLF1oKYKaIgU0iBr1lNYDmAEoKrIEU9NILL6F50+aiy5DFZrOhZo0a2Lp9K27evCm6HFKAn58f3n9nIkqVLCW6FFlKlCgBX19fHDx8UHQppJx9ADrAeWVcdSIDwE04rwSUA/CIwDpIJovFgleHvIY2z3rHfcrQ0DA0avgEDh0+iNS0VNHlkAwlipfAxPcmoXy58qJLUUTVKtVQqlRp7Nu/F7m5uaLLIXkWA+gI5+PxQogMAACQA+BnABcA1AVgF1sOFVbtyNoYO2Yc6kTWEV2KouyBdjz91DPIycnB72d/R15enuiSqBAsFgs6tOuIUcNHIyLCu27plC1TFo8/Vh+XEhOQcIlrq2lQPIBhAMZC0Jn/bQaRg9/DD0B3AO0BNAPALaw8VER4BB5/rD4aP9kYNarVEF2O2yUmJWLTlk3YvWcXfvv9NzgcDtElUT4MBgMqVayEBo83wDNNnkFERBHRJbndsRPHsG37NuzZuxuXky+LLofuLwPO5/xj4Jz/5hFbrXpSALhX0VtfBS2EXRnAHCkDVH4oGHPGN5PS1OP89ud1dHtnvaS2JUqUxOsjxxT4Ol9fG8LDwnX9THJObg6uXbuGa9cKXtByzdo1WLV2laRx+rWthv7ttDlj/V5fxx7H9ytOSmr7bKvWaNWiZYGvCw4OQXBwMMwmzWxwqrisrCwkpyQjI6PgyeQfT/4YF+MvShrnp3FNUbWMdyxP3HPCBsRdkLz4Xk8AcQW85iaAxFtfHseT/1pc/UeTfG3Wz8eMOpW94/Kg1SJ9drCP1YqKFSopWI33MpvMCA8Ld2l51pDQvZLHKRHu5zXvzRLh0p8KCQ0N5XvTRT4+PihZwrU51XJCfJWHQrzmvennI+sQeBLAIYVKEYLPlBAREekQAwAREZEOMQAQERHpEAMAERGRDjEAEBER6RADABERkQ4xABAREekQAwAREZEOMQAQERHpEAMAERGRDjEAEBER6RADABERkQ4xABAREekQAwAREZEOefJ2wO5nNAA2q+gqlOFjEV0BKcls8p73ptkkugJSkq/Ze96bRoPoCoTSdwAwm4AIu+gqlJGSKboCUpK/j/e8N/19RFdASgoO8J73ps7DKW8BEBER6RADABERkQ4xABAREekQAwAREZEOMQAQERHpEAMAERGRDjEAEBER6RADABERkQ4xABAREekQAwAREZEOMQAQERHpEAMAERGRDjEAEBER6RADABERkQ4xABAREekQAwAREZEOMQAQERHpEAMAERGRDjEAEBER6RADABERkQ4xABAREekQAwAREZEOMQAQERHpEAMAERGRDjEAEBER6RADABERkQ4xABAREekQAwAREZEOMQAQERHpEAMAERGRDjEAEBER6RADABERkQ4xABAREekQAwAREZEOMQAQERHpEAMAERGRDjEAEBER6RADABERkQ4xABAREekQAwAREZEOMQAQERHpEAMAERGRDjEAEBER6RADABERkQ4xABAREekQAwAREZEOMQAQERHpEAMAERGRDjEAEBER6RADABERkQ4xABAREekQAwAREZEOMQAQERHpEAMAERGRDjEAEBER6ZBZdAH5KAOgGYDSAIoAMBXw+nCpA11MSEX/N1dKbe5RrlzLkNw2OTkZn385rcDXWa0+CAsNRalSpRFZKxI+Pj6Sx9Qah8OB02dO41TcSVy5egV///13gW3O/Pab5PFWbDyDhKSCx9CC/b8mSG67Z+9upKQkF/i6wIBAhISGomrlqqhUsRIMBoPkMbUmKysLh44cQnz8RaRcuYLs7KwC2yRdTpI83qTpOxAR5ie5vSe5mJAqp/k4AAW9OXMBJAG4CGA9gAtyBlSap/yVGAB0AzASQG3BtZALfHx88Hi9x9Gzey+ULlVadDlucyP9BpYsXYz1G9cj5UqK6HLIBWFhYWjRrCWiOkbBZrOJLsdtLsZfxJx5s7Fn3x5kZRV80CePcBDAJwDmA3AIrsUjAkAVALMB1BFdCBWeyWRCm/+0Qd8XXoLZ7IkXlKTbsm0zvv7ua6SmyjpLIEGCgoIw6OVBePKJxqJLUVROTg5+mPE9VqxegdzcXNHlkDQHAPQEECeyiIIur7tbcwBrAZQXXAdJ5HA4EHc6DkePH8Xjj9X3itsCDocDM2fPxHf//Y5nVhqWlZWFnbt2IjcnB4/UrOUVtwVSU1Px9oS3sH3ndjgcwk8gSboSAHoBOAzgd1FFiAwAtQGsAxAosAZSSNLlJBw/cRzPNHkGJpPoXCnPnHmzMX/RfNFlkEKOnTgGk9GImjVqii5FluzsbIx/dxxOnDwhuhRShi+AKAAbAcSLKEDUJ3VRANsAhAoan9wgOTkZV69eQf3H6osuRbJfdv+CL7/5UnQZpLCjx46iQvkKKFWylOhSJJs2fRr27NsjugxSlhlAawBzAKg+61fUY4DvACguaGxyo7Xr1+LkKW2eoWRnZ+Ob77/hpVUv5HA48PV3XyE7O1t0KZLEnY7Dhk3rRZdB7lEcwLsiBhYRACoA6CtgXFLJzNmzRJcgycrVK3BZxuNR5NmSkpKwas0q0WVI8t+ZPzCYercXATys9qAiAkAPABYB45JKjh77FZeTL4suo9A2bt4ougRys01btPc7TkpKwrHjx0SXQe5lhvPYqCoRAaCdgDFJRQ6HA3v2auteZWJSIs7+cVZ0GeRmv5/9XXNXeXbv3c2zf31or/aAagcAI4BaKo9JAvx+VtiTLZJorV6SxuFwaO53/ftZ6StKkqY8ApVX51U7AISDl/914YrGVs3TWr0kXcqVK6JLKJQrGquXJDPC+YScqgOqKUzl8UiQ66nXRZdQKKlpaaJLIJWkau69yZUodUTy3jZSiLgFQDqgtXuWjrw80SWQSvK09t7UVrkkj6rHSB6QiYiIdEgzu7cUK1YMo0eOFl2GrlyMv4gpU6eILsPjtWjRAq1atBJdhq6sWbcG69atE12Gxxs+bLimVz/UoslTJyM+XsjKvoWmmQAQHBSM3r17iy5DVw4fPswA4IJHaz3K96bKLiVeYgBwQetnW6NWLT54paYfZ/2omQDAWwBEREQ6xABARESkQwwAREREOsQAQEREpEMMAERERDrEAEBERKRDDABEREQ6xABARESkQwwAREREOsQAQEREpEMMAERERDrEAEBERKRDDABEREQ6xABARESkQwwAREREOsQAQEREpEOGAn5uA9ACQBsAlQEUAxAuYzwTALukhiYTAgMDZQxNhZWbm4u0tDRJbY1GI/z8/BSuyH2ys7ORnZ0tqa2Pjw9sNpvCFdGDZGRkICsrS1Jbq9UKq9WqcEXuk56ejry8PEltAwMDYTKZFK6IHiQtLQ25ublSm6cCkNwYQDKASwBOA1gBYB2A9Pu9+H4BwA/AUACvAwiWUQwRERGJ8TeA6QAmAvjX2Vx+AeBRADEAyri3LiIiIlLBBQAdARy885v3zgFoA2AHePAnIiLyFg8B2A6g/Z3fvPMKQOStF/irWBQRERGpIxPAUwD2Av8LAIEAjgMoLagoIiIicr94ANUBpN6eHjoWQDtx9RAREZEK7HA+abDZACAIzkQQILQkIiIiUsMNAKWNAFqDB38iIiK98AfQxgigrehKiIiISFXtjACqiq6CiIiIVFXFCKC46CqIiIhIVSUMALIAaGdhbCIiIpKNuwESERHpEAMAERGRDpnlNP5sawJMFt49ICIiEmFIwzDJbWUFAD97CMwMAERERJrDWwBEREQ6xABARESkQwwAREREOsQAQEREpEMMAERERDrEAEBERKRDDABEREQ6xABARESkQwwAREREOsQAQEREpEMMAERERDrEAEBERKRDDABEREQ6xABARESkQwwAREREOsQAQEREpEMMAERERDrEAEBERKRDDABEREQ6ZJbT+OSeTTCZZHVBRDLZw4uiRPmqMAr6W7wcfxZXLl1E7s2bQsYnImkMALIAWEUXQkTS+dtDUL9NT7TrPxb2sKJuHy835ya2LPoW62dPQ+L5M24fj4iUxwBA5EUCQsIxZMoiVK77lNvGSE1JxOevdsZvh39x2xhE5H4GABkAfEUXQkTK8LH5482ftuOhKo8q3nd2Zjom9W6M8ycOKt43EakqzwggWXQVRKScrIwb+O6NPsjLy1W879ivJvDgT+QdkowA/hJdBREpK/7MURzavEzRPjNvpGHDnM8V7ZOIhEkwAmCcJ/JChzYpGwCO71qP7Mx0RfskImEOGAHEiq6CiJR36Vycsv39oWx/RCRUjBnAJgDxAEoJLoaIFBR/+uhpQ56hh1L9/bJidn8A/ZTqj4iE+QvARsOt/3gBwH8FFkNEylsFoLWC/fUH8LWC/RGRGP0AfH97KeBZAHYKLIaIlLfJw/sjIvXtAjADcK4DcFtRAHsBPCSiIiJS1N8AKgG4pHC/mwA8rXCfRKSOeAD1cOtz4c7NgBIBtADAdT2JtO9dKH/wB4DhcC4eRkTa8hucx/h/Phfu3Q0wDsDjAGJULIqIlPUdgE/d1PdhAL3hXEKciLRhGZzH9pN3fjO/7YCvAugI52W+rQDy3F4aESkhGcBAAC8DcLhxnMUAmsAZBojIM+UB2A6gKYD2AK7c+wLDvd/IRzE4ZxI/DKAEnHMFXGlHRO6XDuAigB0AVgJIU3FsI4CnALSEc+5QhIpjE9HdHHDeyk+A82r+qlv/m4iIiOh//h/ljj7B3ybgAAAAAABJRU5ErkJggg==;" parent="1" vertex="1">
                    <mxGeometry x="535" y="780" width="40" height="40" as="geometry"/>
                </mxCell>
            </root>
        </mxGraphModel>
    </diagram>
</mxfile>